<?xml version="1.0" encoding="iso-8859-1"?>
<svg version="1.1" id="add-plus" height="100%" width="100%" xmlns="http://www.w3.org/2000/svg"
    xmlns:xlink="http://www.w3.org/1999/xlink" x="0px" y="0px" viewBox="0 0 32 32"
    style="enable-background:new 0 0 16 16;" xml:space="preserve">
    <path d="M14.5,14.501l-10.502,0c-0.828,0 -1.5,0.673 -1.5,1.5c0,0.828 0.672,1.5 1.5,1.5l10.502,0l-0.001,10.502c0,0.828 0.672,1.5 1.5,1.501c0.828,-0 1.5,-0.673 1.5,-1.5l0.001,-10.503l10.502,0c0.828,0 1.5,-0.672 1.5,-1.5c0,-0.827 -0.672,-1.5 -1.5,-1.5l-10.502,0l0.001,-10.501c-0,-0.828 -0.672,-1.501 -1.5,-1.501c-0.828,0 -1.5,0.672 -1.5,1.5l-0.001,10.502Z" />
</svg>