<?xml version="1.0" standalone="no"?>
<svg version="1.0" id="arrow-down" xmlns="http://www.w3.org/2000/svg"
    width="100%" height="100%" viewBox="0 0 158.000000 158.000000"
    preserveAspectRatio="xMidYMid meet">
    <g transform="translate(0.000000,158.000000) scale(0.100000,-0.100000)">
        <path d="M654 1571 c-12 -5 -31 -22 -43 -37 -20 -26 -21 -36 -21 -303 0 -315 -5 -344 -56 -368 -32 -16 -42 -16 -144 1 -118 18 -150 13 -150 -25 0 -30 500 -819 527 -832 16 -7 30 -7 46 0 27 13 527 802 527 832 0 38 -32 43 -150 25 -102 -17 -112 -17 -144 -1 -51 24 -56 53 -56 369 l0 278 -29 32 -29 33 -129 2 c-70 2 -138 -1 -149 -6z" />
    </g>
</svg>