<?xml version="1.0" encoding="iso-8859-1"?>
<!-- Generator: Adobe Illustrator 19.0.0, SVG Export Plug-In . SVG Version: 6.00 Build 0)  -->
<svg version="1.1" id="bank-emi" height="100%" width="100%" xmlns="http://www.w3.org/2000/svg" xmlns:xlink="http://www.w3.org/1999/xlink" x="0px" y="0px" viewBox="0 0 490.002 490.002" style="enable-background:new 0 0 490.002 490.002;" xml:space="preserve">
	<path d="M434.394,394.673c-33.304,17.119-140.459,51.373-191.127,0c0,0,117.276,10.535,121.625,0
		c4.349-10.535-13.031-27.654-104.246-47.422c-91.215-19.753-156.384,0-156.384,0v126.449c0,0,57.911-30.303,86.882-15.802
		c28.971,14.501,108.594,35.57,156.384,31.62c47.774-3.951,124.519-67.175,139.005-88.244
		C500.987,380.188,467.682,377.539,434.394,394.673z" />
	<rect x="0.001" y="347.251" width="69.502" height="135.697" />
	<polygon points="380.311,84.891 245.211,0 109.698,84.753 125.929,110.707 245.18,36.152 364.003,110.815 	" />
	<rect x="313.978" y="124.167" width="30.625" height="118.302" />
	<rect x="229.684" y="124.167" width="30.624" height="118.302" />
	<rect x="145.39" y="124.167" width="30.624" height="118.302" />
	<rect x="118.563" y="265.147" width="252.866" height="30.625" />
</svg>