<?xml version="1.0"?>

<svg id="cellphone" width="100%" height="100%" viewBox="0 0 8.4666669 8.4666669"
    version="1.1"
    xmlns="http://www.w3.org/2000/svg">
    <g transform="translate(0,-288.53332)">
        <path
            d="M 8 1 C 6.3552929 1 5 2.3553008 5 4 L 5 28 C 5 29.644699 6.3552929 31 8 31 L 24 31 C 25.644705 31 27 29.644699 27 28 L 27 4 C 27 2.3553008 25.644705 1 24 1 L 8 1 z M 14.003906 3 L 17.996094 3 A 1.000252 1.000252 0 1 1 17.996094 5 L 14.003906 5 A 1.000252 1.000252 0 1 1 14.003906 3 z M 16 27.005859 A 1.0000001 1.0000001 0 0 1 17 28.005859 A 1.0000001 1.0000001 0 0 1 16 29.005859 A 1.0000001 1.0000001 0 0 1 15 28.005859 A 1.0000001 1.0000001 0 0 1 16 27.005859 z "
            transform="matrix(0.26458333,0,0,0.26458333,0,288.53332)" />
    </g>
</svg>