<?xml version="1.0" encoding="iso-8859-1"?>
<svg version="1.1" id="donut-chart" width="100%" height="100%" xmlns="http://www.w3.org/2000/svg" xmlns:xlink="http://www.w3.org/1999/xlink" x="0px" y="0px" viewBox="0 0 491.273 491.273" xml:space="preserve">
	<g>
		<path d="M284.03,0.933c-4.822-0.906-9.804,0.473-13.557,3.615c-3.768,3.15-5.94,7.81-5.94,12.723v119.756
		c0,6.977,4.372,13.207,10.923,15.598c29.534,10.734,52.708,33.965,63.581,63.732c2.397,6.547,8.618,10.896,15.589,10.896h120.057
		c4.907,0,9.568-2.172,12.722-5.939c3.147-3.758,4.472-8.727,3.612-13.555C472.351,102.724,389.162,19.61,284.03,0.933z
		 M365.708,194.065c-13.961-30.164-37.994-54.25-67.988-68.131V37.985c75.758,20.66,135.563,80.416,156.238,156.08H365.708z" />
		<path d="M191.583,139.263c3.457-1.459,5.706-4.844,5.706-8.588V28.659c0-2.836-1.299-5.516-3.513-7.283
		c-2.219-1.766-5.116-2.43-7.88-1.799C114.092,35.991,54.592,84.784,23.464,149.685l112.877,35.73
		C149.712,165.062,168.878,148.825,191.583,139.263z" />
		<path d="M463.107,294.501H361.092c-3.747,0-7.126,2.244-8.585,5.697c-15.773,37.406-49.54,65.248-90.367,73.031v117.385
		c103.234-9.883,187.386-85.672,210.04-184.713c0.63-2.764-0.024-5.664-1.794-7.885
		C468.622,295.798,465.939,294.501,463.107,294.501z" />
		<path d="M116.149,252.581c0-7.082,0.73-13.986,1.889-20.742L6.795,196.626C2.463,214.597,0,233.288,0,252.581
		c0,122.812,93.061,224.187,212.358,237.588V372.591C157.382,360.292,116.149,311.2,116.149,252.581z" />
	</g>
</svg>