<?xml version="1.0" encoding="iso-8859-1"?>
<svg version="1.1" id="drinks" width="100%" height="100%" xmlns="http://www.w3.org/2000/svg" xmlns:xlink="http://www.w3.org/1999/xlink" x="0px" y="0px" viewBox="0 0 297 297" style="enable-background:new 0 0 297 297;" xml:space="preserve">
	<path d="M143.003,117.742L40.831,94.945c-0.506-0.112-1.016-0.167-1.518-0.167c-2.365,0-4.611,1.204-5.906,3.264
		c-5.17,8.227-9.644,16.577-13.182,24.499l129.701,29.135c0.174-8.727-0.326-18.256-1.52-27.976
		C148.048,120.771,145.884,118.386,143.003,117.742z" />
	<path d="M85.599,277.31l-20.566-4.59l6.922-31.048c-3.311-0.333-6.607-0.855-9.861-1.582c-3.291-0.735-6.482-1.678-9.586-2.773
		l-6.924,31.063l-20.566-4.588c-5.367-1.202-10.695,2.183-11.893,7.554c-1.199,5.37,2.184,10.695,7.553,11.895l60.582,13.519
		c0.73,0.163,1.461,0.241,2.18,0.241c4.564,0,8.68-3.155,9.715-7.796C94.353,283.834,90.97,278.509,85.599,277.31z" />
	<path d="M12.777,144.03c-8.291,37.169,15.195,74.154,52.355,82.446c4.965,1.107,10.041,1.669,15.088,1.669
		c15.447,0,30.662-5.313,42.836-14.958c12.357-9.788,21.057-23.67,24.496-39.087c0.574-2.576,1.041-5.375,1.412-8.345
		L15.105,135.689C14.152,138.6,13.364,141.398,12.777,144.03z" />
	<path d="M268.308,26.15c-4.033-7.582-9.008-15.513-14.645-23.274C252.327,1.038,250.214,0,248.023,0
		c-0.658,0-1.322,0.094-1.975,0.286l-100.23,29.555c-2.83,0.834-4.828,3.359-4.99,6.305c-0.545,9.857-0.395,19.475,0.385,28.23
		L268.308,26.15z" />
	<path d="M211.152,135.767c6.58,0,13.146-0.953,19.514-2.831c36.457-10.749,57.377-49.166,46.631-85.638
		c-0.783-2.655-1.789-5.47-2.977-8.391L143.146,78.359c0.555,2.825,1.191,5.484,1.912,7.931c8.582,29.129,35.76,49.475,66.09,49.477
		C211.15,135.767,211.15,135.767,211.152,135.767z" />
	<path d="M285.48,174.12c-1.557-5.276-7.096-8.298-12.375-6.739l-20.154,5.943l-8.963-30.42c-3.023,1.301-6.143,2.457-9.377,3.41
		c-3.207,0.946-6.459,1.684-9.734,2.237l8.959,30.409l-20.16,5.946c-5.279,1.557-8.295,7.097-6.74,12.374
		c1.279,4.338,5.248,7.148,9.553,7.148c0.932,0,1.883-0.132,2.822-0.409l59.43-17.525
		C284.019,184.938,287.034,179.398,285.48,174.12z" />
</svg>