<?xml version="1.0" encoding="iso-8859-1"?>
<svg id="expert" height="100%" width="100%" version="1.1" xmlns="http://www.w3.org/2000/svg"
	xmlns:xlink="http://www.w3.org/1999/xlink"
	viewBox="0 0 403.34 403.34" xml:space="preserve">
<g>
	<path d="M201.675,115.898c-24.577,0-44.571,19.994-44.571,44.571c0,24.578,19.994,44.573,44.571,44.573
		c24.571,0,44.561-19.995,44.561-44.573C246.235,135.892,226.246,115.898,201.675,115.898z"/>
	<path d="M403.335,179.276c0-10.931-8.208-20.135-19.094-21.408l-22.891-2.676c-3.251-11.672-7.892-23.087-13.818-33.992
		l14.091-17.808c6.768-8.547,6.077-20.858-1.622-28.652l-30.214-30.212c-4.074-4.072-9.482-6.315-15.23-6.315
		c-4.844,0-9.612,1.666-13.427,4.69l-17.195,13.629c-11.289-6.424-23.367-11.483-35.967-15.067l-2.599-22.329
		c-1.283-10.889-10.489-19.098-21.415-19.098h-42.848c-10.933,0-20.135,8.209-21.406,19.098l-2.603,22.325
		c-12.919,3.657-25.341,8.908-36.984,15.633l-17.898-14.191c-3.793-3.008-8.546-4.664-13.382-4.664
		c-5.744,0-11.164,2.226-15.28,6.285L43.275,74.81c-7.736,7.738-8.436,20.059-1.63,28.656l15.104,19.105
		c-5.851,10.925-10.406,22.456-13.567,34.343l-24.085,2.748c-10.884,1.28-19.091,10.483-19.091,21.405L0,223.917
		c0.008,10.927,8.221,20.13,19.108,21.409l25.604,2.973c3.32,10.84,7.718,21.283,13.097,31.11l-16.157,20.387
		c-6.771,8.546-6.078,20.86,1.625,28.66l30.282,30.279c4.072,4.072,9.479,6.315,15.227,6.315c4.845,0,9.614-1.666,13.43-4.69
		l20.227-16.007c10.31,5.74,21.219,10.355,32.495,13.747l3.037,26.103c1.279,10.888,10.484,19.099,21.412,19.099h42.849
		c10.925,0,20.128-8.211,21.408-19.106l2.894-25.033c12.137-3.347,23.911-8.107,35.064-14.176l19.524,15.448
		c3.799,3.007,8.555,4.664,13.391,4.664c5.744,0,11.163-2.228,15.271-6.289l30.285-30.287c7.736-7.739,8.433-20.058,1.626-28.646
		l-15.151-19.222c6.191-11.052,11.035-22.617,14.426-34.446l23.268-2.674c10.889-1.285,19.1-10.492,19.1-21.417L403.335,179.276z
		 M155.997,275.09v31.424c-6.142-2.686-12.003-5.895-17.528-9.571L155.997,275.09z M247.34,275.088l17.529,21.855
		c-5.525,3.678-11.388,6.886-17.529,9.571V275.088z M249.976,218.598c-3.499-5.056-9.265-8.074-15.424-8.074
		c-0.221,0-65.55,0-65.767,0c-6.157,0-11.924,3.018-15.371,8.001l-41.705,53.693c-15.284-19.447-24.41-43.953-24.41-70.55
		c0-63.064,51.307-114.37,114.371-114.37c63.064,0,114.371,51.307,114.371,114.37c0,26.598-9.126,51.104-24.411,70.551
		L249.976,218.598z"/>
</g>
</svg>