<?xml version="1.0" encoding="iso-8859-1"?>
<svg version="1.1" id="holidays-travel" width="100%" height="100%" xmlns="http://www.w3.org/2000/svg" xmlns:xlink="http://www.w3.org/1999/xlink" x="0px" y="0px" viewBox="0 0 457.292 457.292" style="enable-background:new 0 0 457.292 457.292;" xml:space="preserve">
	<circle cx="193.31" cy="51.905" r="36.358" />
	<path d="M163.637,372.865c-5.057,3.474-10.978,5.447-17.212,5.696v57.679c0,11.627,9.425,21.052,21.052,21.052
		c11.627,0,21.052-9.425,21.052-21.052v-39.864C176.057,394.65,166.051,385.107,163.637,372.865z" />
	<path d="M197.618,436.24c0,11.627,9.425,21.052,21.052,21.052c11.626,0,21.051-9.425,21.051-21.052v-39.578h-42.103V436.24z" />
	<path d="M70.886,86.355c1.549,3.079,3.972,5.634,6.964,7.345l68.567,39.197v71.928c18.123,7.59,30.949,25.478,31.053,46.287
		c0.01,1.986,0.081,16.07,0.091,18.035c4.001-2.377,8.549-3.82,13.426-4.083v-2.027c0-16.904,13.752-30.656,30.657-30.656h17.695
		v-95.442h13.189c0.782-2.246,1.508-4.345,2.175-6.287c4.288-12.477,9.796-21.811,15.831-28.799h-77.448
		c-0.006,0-0.012,0.001-0.018,0.001c-0.006,0-30.26-0.001-30.26-0.001l-62.957-35.99L71.571,9.661
		c-4.356-8.654-14.903-12.14-23.557-7.785c-8.655,4.355-12.14,14.901-7.785,23.557L70.886,86.355z" />
	<path d="M454.698,251.515c-0.284-0.777-28.557-78.13-41.009-114.363c-8.032-23.378-21.503-35.231-40.038-35.231
		c-5.026,0-34.196,0-59.995,0c-22.148,0-33.514,16.327-40.664,37.048c-11.696,33.838-40.786,113.85-40.786,113.85
		c-8.498,0-10.698-0.132-12.382,0.171c-0.079,0.014-0.161,0.02-0.24,0.037c-4.67,0.956-8.16,5.087-8.16,10.011
		c0,8.981,0,13.492,0,22.419h-18.832c-5.014,0-9.079,4.065-9.079,9.08v72.61c0,5.014,4.065,9.079,9.079,9.079h110.558
		c5.014,0,9.079-4.065,9.079-9.079v-72.61c0-5.015-4.065-9.08-9.079-9.08h-18.832c0-8.93,0-13.438,0-22.419
		c0-5.644-4.575-10.219-10.219-10.219h0h-5.104c9.13-25.071,21.63-59.616,30.55-84.872c-0.867,7.092,0.914-2.754-12.645,67.247
		c10.527,4.859,17.855,15.509,17.855,27.845v2.027c15.532,0.836,27.912,13.734,27.912,29.472c0,9.168,0,65.35,0,72.61
		c0,16.275-13.241,29.517-29.517,29.517h-5.542v39.85c0,11.476,9.304,20.779,20.779,20.779s20.779-9.304,20.779-20.779V308.346
		c2.987,0,5.984,0,8.972,0v128.167c0,11.476,9.304,20.779,20.779,20.779c11.476,0,20.779-9.304,20.779-20.779V308.346
		c5.002,0,9.489,0,13.213,0c2.874,0,5.596-1.285,7.424-3.503c1.827-2.218,2.566-5.136,2.02-7.957
		c-26.605-137.362-23.664-121.338-24.595-128.947c13.868,39.26,34.172,94.81,34.413,95.469c3.289,8.995,13.244,13.596,22.209,10.316
		C453.363,270.441,457.983,260.498,454.698,251.515z M248.87,274.782c2.462,0,4.867-0.54,7.07-1.526h7.941h0v12.2h-32.02v-12.2h0
		h9.957C244.055,274.25,246.316,274.782,248.87,274.782z" />
	<path d="M145.152,358.595c7.101-0.035,12.829-5.821,12.793-12.922l-0.475-94.461c-0.084-16.693-13.734-30.275-30.427-30.275
		c-8.954,0-43.707,0-57.807,0l-34.365-13.114l-7.815-44.125c-1.242-7.015-7.983-11.644-14.903-10.419
		c-6.993,1.239-11.657,7.911-10.418,14.903l9.086,51.299c0.788,4.45,3.854,8.159,8.077,9.77l39.371,15.024l0.006,197.586
		c0,8.521,6.908,15.43,15.429,15.43c8.521,0,15.429-6.908,15.429-15.43c0-107.688,0.01-96.494-0.019-97.705h6.7
		c-0.028,1.142-0.019-9.27-0.019,97.705c0,8.521,6.908,15.43,15.429,15.43c8.521,0,15.429-6.908,15.429-15.43v-68.956
		l-0.269-121.545c-0.003-1.482,1.194-2.686,2.675-2.692c1.482-0.006,2.688,1.19,2.696,2.672l0,0l0.475,94.461
		c0.035,7.079,5.785,12.793,12.856,12.793C145.108,358.595,145.131,358.595,145.152,358.595z" />
	<path d="M59.373,177.803c0,7.844,2.721,15.048,7.262,20.735c6.095,7.634,15.475,12.531,26.003,12.531
		c9.379,0,17.845-3.887,23.892-10.131c5.799-5.987,9.373-14.141,9.373-23.135c0-18.372-14.893-33.265-33.266-33.265
		S59.373,159.431,59.373,177.803z" />
	<path d="M343.654,90.481c19.722,0,35.888-15.984,35.888-35.888c0-19.82-16.067-35.887-35.888-35.887
		c-19.82,0-35.888,16.067-35.888,35.887C307.766,74.415,323.867,90.481,343.654,90.481z" />
</svg>