<?xml version="1.0" encoding="iso-8859-1"?>
<svg version="1.1" id="house-rent" height="100%" width="100%" xmlns="http://www.w3.org/2000/svg" xmlns:xlink="http://www.w3.org/1999/xlink" x="0px" y="0px" viewBox="0 0 512.002 512.002" style="enable-background:new 0 0 512.002 512.002;" xml:space="preserve">
	<path d="M512.002,213.334v-8.533c0-18.825-15.309-34.133-34.133-34.133h-26.778L275.509,14.917
				C254.961-4.88,222.756-4.88,202.395,14.746l-65.792,59.827V51.201h8.533c4.719,0,8.533-3.823,8.533-8.533V8.534
				c0-4.71-3.814-8.533-8.533-8.533h-102.4c-4.71,0-8.533,3.823-8.533,8.533v34.133c0,4.71,3.823,8.533,8.533,8.533h8.533v98.5
				L6.427,188.596c-5.965,5.291-7.996,13.534-5.171,20.992c2.833,7.458,9.822,12.279,17.801,12.279H51.27v238.933h-8.533
				c-4.71,0-8.533,3.823-8.533,8.533v34.133c0,4.71,3.823,8.533,8.533,8.533h392.465c4.702,0,8.525-3.806,8.533-8.516l0.068-34.133
				c0.008-2.27-0.888-4.446-2.492-6.05c-1.604-1.604-3.772-2.5-6.042-2.5h-8.533v-17.067h51.132
				c18.825,0,34.133-15.309,34.133-34.133v-128H162.135v-17.067h349.867v-34.133H162.135v-17.067H512.002z M349.868,341.334
				c0-4.71,3.823-8.533,8.533-8.533h110.933c4.71,0,8.533,3.823,8.533,8.533v59.733c0,4.71-3.823,8.533-8.533,8.533H358.402
				c-4.71,0-8.533-3.823-8.533-8.533V341.334z M259.603,307.201h55.543c4.71,0,8.533,3.823,8.533,8.533
				c0,4.71-3.823,8.533-8.533,8.533h-55.543c-4.71,0-8.533-3.823-8.533-8.533C251.069,311.024,254.892,307.201,259.603,307.201z
				 M323.679,349.867c0,4.71-3.823,8.533-8.533,8.533h-16.478c-4.71,0-8.533-3.823-8.533-8.533s3.823-8.533,8.533-8.533h16.478
				C319.857,341.334,323.679,345.157,323.679,349.867z M187.735,307.201h42.667c4.71,0,8.533,3.823,8.533,8.533
				c0,4.71-3.823,8.533-8.533,8.533h-42.667c-4.71,0-8.533-3.823-8.533-8.533C179.202,311.024,183.025,307.201,187.735,307.201z
				 M187.735,341.334h84.156c4.719,0,8.533,3.823,8.533,8.533s-3.814,8.533-8.533,8.533h-84.156c-4.71,0-8.533-3.823-8.533-8.533
				S183.025,341.334,187.735,341.334z M145.068,204.801v8.533v17.067v34.133v17.067v128c0,18.825,15.309,34.133,34.133,34.133
				H409.67v25.6c0,4.71,3.823,8.533,8.533,8.533h8.516l-0.034,17.067H51.27v-17.067h8.533c4.719,0,8.533-3.823,8.533-8.533v-256
				c0-4.71-3.814-8.533-8.533-8.533H19.057c-0.905,0-1.519-0.427-1.835-1.271c-0.324-0.845-0.145-1.57,0.461-2.108l47.718-41.378
				c1.86-1.621,2.935-3.968,2.935-6.443V42.667c0-4.71-3.814-8.533-8.533-8.533H51.27V17.067h85.333v17.067h-8.533
				c-4.71,0-8.533,3.823-8.533,8.533v51.2c0,3.379,1.997,6.434,5.086,7.808c3.089,1.365,6.69,0.776,9.19-1.493l80.239-72.977
				c13.909-13.397,35.703-13.397,49.877,0.239L425.38,170.667H179.202C160.377,170.667,145.068,185.976,145.068,204.801z" />
	<rect x="366.935" y="349.863" width="93.867" height="42.667" />
</svg>