<?xml version="1.0" standalone="no"?>
<svg version="1.0" id="lion-face" xmlns="http://www.w3.org/2000/svg" width="100%" height="100%" viewBox="0 0 852.000000 653.000000" preserveAspectRatio="xMidYMid meet">
        <g transform="translate(0.000000,653.000000) scale(0.100000,-0.100000)" stroke="none">
                <path d="M3976 6512 c-3 -5 6 -17 20 -27 28 -18 58 -78 69 -136 16 -87 -44
-177 -176 -264 -36 -25 -156 -88 -265 -141 -110 -53 -245 -118 -300 -145 -56
-27 -141 -78 -189 -114 -48 -36 -91 -65 -96 -65 -4 0 -13 17 -20 38 -19 58
-114 143 -215 194 l-88 43 -140 0 c-160 -1 -201 -12 -171 -46 17 -18 16 -19
-8 -28 -54 -21 -73 -85 -37 -121 24 -24 40 -26 40 -5 0 39 126 43 187 5 43
-26 59 -77 43 -138 -42 -172 -263 -373 -665 -606 -82 -48 -186 -113 -229 -144
-102 -73 -245 -216 -321 -322 -107 -149 -161 -272 -241 -545 -24 -83 -30 -94
-77 -135 -135 -120 -204 -192 -257 -271 -58 -87 -110 -205 -130 -294 -18 -80
-46 -120 -188 -271 -248 -264 -317 -355 -397 -519 -95 -196 -117 -312 -70
-376 14 -19 33 -59 42 -89 23 -80 46 -122 93 -164 45 -41 172 -106 205 -106
29 0 67 -30 161 -126 98 -100 176 -142 280 -150 38 -3 80 -2 93 3 23 9 21 11
-35 43 -60 35 -174 141 -174 163 0 11 78 67 95 67 4 0 42 -33 84 -73 114 -108
229 -167 329 -167 l45 0 -55 57 c-63 66 -114 140 -104 150 16 17 448 -40 484
-63 31 -21 48 -63 61 -156 16 -114 36 -441 28 -461 -6 -16 -9 -17 -37 -2 -16
8 -52 35 -80 60 -54 48 -89 70 -97 61 -11 -10 16 -116 47 -186 45 -102 33
-110 -78 -55 -39 20 -86 53 -108 77 l-37 42 7 -44 c14 -90 86 -215 144 -250
22 -14 35 -34 51 -80 11 -34 35 -82 53 -105 35 -46 107 -99 148 -110 67 -17
81 -29 121 -97 23 -39 59 -88 81 -110 53 -53 187 -117 253 -120 47 -3 50 -2
53 24 l3 26 69 -24 c115 -40 317 -30 384 19 19 14 19 15 -2 49 -27 44 -28 68
-3 68 20 0 155 -137 173 -175 30 -66 59 -4 67 140 l6 109 64 13 c101 20 202
76 290 159 42 39 74 74 71 77 -3 2 -40 -3 -82 -11 -66 -14 -86 -14 -139 -3
-35 7 -79 21 -99 31 -41 21 -133 116 -128 131 2 6 20 17 41 24 20 7 63 32 94
56 l56 44 -52 7 c-154 23 -218 123 -192 303 15 109 49 176 114 224 131 99 295
89 504 -31 97 -55 178 -134 285 -278 162 -217 303 -359 487 -490 151 -108 320
-172 506 -191 134 -14 220 -34 269 -63 65 -38 127 -97 143 -134 7 -18 19 -32
26 -29 34 11 7 160 -43 233 -18 25 -75 76 -136 121 -57 43 -98 79 -90 81 8 2
41 -2 72 -7 173 -32 343 -2 624 111 153 62 209 78 274 78 90 0 112 -25 86 -96
-6 -15 -8 -29 -6 -32 9 -8 69 21 103 51 28 25 33 36 33 74 0 57 -18 91 -76
142 -60 53 -142 91 -211 98 -32 4 -52 10 -50 17 5 16 174 73 290 97 140 30
412 33 502 6 134 -41 208 -122 186 -204 -6 -21 -17 -47 -25 -58 -9 -11 -16
-24 -16 -29 0 -13 77 2 120 24 34 17 89 71 90 88 1 4 5 27 10 52 37 194 -166
451 -423 534 -43 14 -130 36 -192 48 -63 12 -115 25 -115 29 0 3 65 20 144 37
453 99 625 98 887 -3 137 -53 143 -49 77 48 -60 90 -201 227 -284 275 -97 58
-216 99 -320 112 -49 6 -90 13 -93 15 -8 9 286 146 374 174 299 98 515 73 654
-74 59 -62 86 -116 106 -211 7 -36 16 -68 19 -71 10 -10 66 104 77 157 15 73
6 208 -20 290 -46 142 -120 247 -226 318 -86 58 -251 142 -279 142 -21 1 -21
1 -1 16 11 9 47 29 80 46 187 95 337 224 496 430 125 160 215 250 287 285 48
23 72 28 159 31 57 3 103 8 103 13 0 14 -87 66 -150 90 -180 68 -375 36 -572
-93 -48 -31 -88 -55 -88 -52 0 3 14 26 32 52 69 104 99 132 176 171 212 107
420 297 583 533 61 88 54 93 -66 49 -107 -39 -259 -70 -378 -78 -160 -10 -397
35 -613 117 -60 23 -150 48 -205 57 -91 15 -105 15 -181 0 -45 -9 -84 -15 -86
-13 -8 8 117 78 168 94 75 23 261 23 350 0 162 -43 393 -49 507 -14 132 41
206 133 206 255 1 78 -16 115 -70 160 -47 38 -109 60 -194 68 -82 7 -98 -8
-37 -37 55 -26 90 -76 96 -140 4 -42 1 -52 -21 -74 -54 -53 -106 -33 -308 119
-167 126 -307 198 -429 222 -47 10 -87 19 -89 20 -2 2 13 40 35 85 36 77 39
89 39 173 0 122 -36 204 -105 240 -68 35 -199 5 -260 -60 l-24 -25 46 6 c41 6
49 3 72 -19 14 -14 26 -34 26 -44 0 -36 -40 -84 -88 -106 -60 -27 -225 -36
-315 -16 -81 17 -247 102 -435 223 -174 111 -429 246 -577 304 -183 72 -306
92 -571 92 -232 0 -362 -24 -576 -108 -43 -16 -78 -28 -78 -26 0 3 11 26 24
52 36 70 50 158 43 271 -8 149 -51 233 -147 285 -54 30 -162 47 -174 28z m198
-143 c36 -65 46 -135 35 -239 -12 -112 -43 -211 -87 -283 -19 -31 -32 -61 -28
-64 4 -4 46 3 94 16 348 93 583 105 887 45 211 -41 572 -200 875 -384 171
-104 267 -152 360 -182 65 -20 95 -23 225 -23 133 0 157 3 208 24 128 51 192
131 185 234 -3 31 -1 57 4 57 5 0 18 -15 29 -32 41 -66 7 -199 -84 -336 -34
-50 -61 -79 -77 -84 -14 -3 -58 -14 -99 -22 -88 -20 -198 -70 -339 -155 -164
-99 -316 -150 -452 -151 -133 0 -332 48 -554 136 -76 30 -141 52 -145 49 -20
-21 197 -142 341 -190 144 -48 284 -68 423 -62 179 9 265 41 465 172 127 84
251 147 323 166 39 9 64 9 138 -5 105 -19 256 -66 347 -107 93 -42 321 -194
309 -206 -2 -2 -67 14 -143 36 -239 67 -322 72 -484 30 -102 -27 -196 -79
-282 -156 -192 -171 -395 -272 -577 -289 -83 -8 -117 2 -331 99 -203 91 -303
129 -436 166 -302 84 -606 104 -939 61 -107 -14 -296 -50 -313 -59 -20 -11
194 -21 452 -21 350 0 528 -24 757 -100 318 -107 570 -246 922 -508 117 -87
143 -112 118 -112 -20 0 -260 76 -631 200 -501 168 -621 194 -940 206 -338 13
-677 -43 -1008 -167 -141 -53 -259 -108 -232 -108 8 -1 51 8 95 18 442 106
882 110 1267 12 126 -32 228 -68 228 -81 0 -16 -32 -19 -237 -25 -114 -3 -219
-9 -233 -11 -19 -4 2 -16 95 -50 336 -124 671 -214 1003 -268 192 -32 336 -46
559 -54 100 -4 185 -11 189 -15 4 -4 -6 -17 -22 -29 -16 -13 -58 -49 -94 -82
-126 -113 -214 -135 -543 -136 -120 0 -261 5 -315 11 -243 26 -500 107 -761
238 -33 17 -66 31 -72 31 -19 0 28 -46 111 -110 313 -239 668 -387 1007 -420
65 -6 143 -14 172 -17 l55 -5 -25 -19 c-48 -37 -166 -89 -249 -109 -217 -52
-487 -31 -785 61 -157 49 -263 93 -500 209 -343 169 -472 207 -674 197 -124
-5 -254 -36 -308 -73 l-28 -19 110 -7 c288 -19 414 -57 785 -238 326 -158 409
-192 575 -235 203 -52 334 -69 540 -69 194 0 255 9 384 61 213 85 347 213 490
469 24 44 46 74 48 67 7 -19 -71 -178 -121 -246 -138 -194 -447 -410 -708
-496 -239 -78 -365 -96 -693 -96 -177 0 -266 4 -279 11 -17 10 -12 13 40 23
121 24 194 43 189 51 -3 5 -36 11 -73 15 -125 11 -267 36 -467 80 -302 66
-399 78 -600 72 -187 -5 -241 -16 -362 -72 -45 -21 -73 -40 -73 -49 0 -24 186
-109 525 -241 363 -142 470 -178 600 -204 153 -31 286 -41 533 -41 124 0 223
-3 220 -6 -3 -3 -64 -19 -134 -35 -71 -17 -133 -33 -138 -36 -29 -19 105 -37
374 -52 l145 -7 -76 -37 c-160 -76 -332 -107 -611 -107 -346 0 -584 50 -942
199 -54 23 -101 40 -102 38 -2 -2 38 -32 88 -68 117 -81 383 -340 499 -484 48
-60 86 -111 84 -114 -2 -2 -46 36 -97 84 -206 194 -425 335 -607 390 -47 14
-9 -16 72 -56 95 -48 161 -89 154 -95 -2 -3 -40 7 -83 22 -70 23 -100 27 -260
31 -202 6 -375 -7 -475 -36 -117 -33 -321 -132 -306 -147 2 -3 57 7 121 22 64
15 119 24 123 21 3 -3 -19 -41 -50 -84 -116 -166 -141 -243 -135 -422 3 -114
6 -133 31 -184 32 -63 81 -110 142 -131 40 -14 40 -14 9 -15 -17 -1 -57 8 -89
19 -87 30 -94 28 -88 -22 13 -101 116 -229 230 -284 51 -25 69 -29 150 -29 50
0 89 -3 87 -7 -2 -4 -30 -17 -62 -29 -92 -36 -218 -33 -350 10 -56 19 -105 31
-109 27 -10 -10 31 -89 99 -193 33 -51 58 -98 56 -105 -3 -7 -29 14 -63 50
-87 93 -215 148 -253 110 -34 -34 -4 -116 71 -197 l32 -33 -100 5 c-55 3 -121
13 -147 22 -68 24 -133 87 -205 197 -35 54 -67 98 -72 98 -5 0 -11 -7 -15 -15
-9 -25 -24 -17 -36 20 -22 67 -33 53 -28 -37 4 -78 8 -91 51 -171 75 -138 59
-154 -51 -52 -81 75 -106 120 -128 231 l-16 80 -107 0 c-92 -1 -112 2 -149 22
-44 23 -108 100 -95 113 5 4 37 1 73 -7 36 -7 86 -14 111 -14 49 0 48 0 177
102 32 26 81 57 108 70 39 18 53 32 70 68 47 98 129 542 122 661 -6 105 -32
145 -197 309 -183 182 -258 220 -437 220 -35 0 -66 4 -69 10 -3 5 1 30 9 54
18 53 26 189 11 196 -5 3 -16 -15 -23 -40 -23 -78 -41 -110 -95 -167 -94 -101
-223 -166 -423 -214 -106 -25 -276 -42 -339 -34 -43 6 -57 14 -100 59 -60 60
-95 130 -102 200 -4 44 -1 56 21 86 42 57 117 215 123 259 8 59 -9 54 -116
-32 -111 -89 -182 -132 -242 -148 -88 -24 -98 1 -44 117 71 154 251 296 500
395 l70 28 -44 0 c-52 1 -133 -19 -220 -54 -35 -14 -65 -24 -67 -22 -6 5 263
267 275 267 5 0 16 -19 26 -42 19 -51 66 -102 107 -119 43 -18 46 -2 6 31 -96
79 -88 229 22 450 78 155 190 274 345 365 52 31 97 60 101 66 3 6 10 56 15
113 22 255 144 505 352 723 111 115 147 144 397 310 107 71 229 157 270 190
96 78 237 224 285 295 65 98 82 205 46 276 -30 59 -63 72 -180 72 -82 0 -101
3 -101 15 0 23 77 57 143 63 53 4 58 7 42 19 -17 12 -16 13 16 13 157 0 358
-126 424 -266 15 -32 29 -61 31 -63 1 -1 20 11 41 28 21 16 146 82 278 145
453 218 549 273 658 381 112 111 137 192 97 310 -11 31 -17 62 -14 67 9 14 58
-37 88 -93z m3403 -2145 c26 -16 38 -68 28 -115 l-7 -32 -18 52 c-9 29 -29 64
-44 80 -14 15 -26 31 -26 35 0 9 38 -2 67 -20z m13 -196 c0 -16 -3 -19 -11
-11 -6 6 -8 16 -5 22 11 17 16 13 16 -11z m-46 -99 c-75 -137 -288 -277 -571
-374 -70 -24 -112 -42 -93 -40 19 2 82 7 140 10 l105 5 -40 -34 c-37 -33 -85
-62 -355 -212 -58 -32 -98 -60 -89 -62 20 -4 228 48 329 83 41 14 115 30 165
35 199 23 340 79 585 234 180 113 291 151 430 144 l65 -3 -55 -19 c-153 -52
-225 -109 -452 -357 -164 -180 -370 -318 -644 -435 -74 -31 -133 -62 -131 -68
2 -6 75 -31 163 -56 165 -47 258 -79 251 -86 -2 -3 -44 2 -93 11 -202 36 -447
30 -658 -16 -49 -10 -91 -17 -93 -16 -1 2 41 40 95 85 108 89 128 109 118 119
-16 16 -295 -84 -495 -178 -57 -27 -106 -49 -108 -49 -2 0 22 33 55 73 129
159 217 322 247 457 33 147 117 273 221 332 66 37 72 46 39 54 -39 10 -22 20
57 33 40 7 188 51 329 97 291 96 378 140 456 229 26 30 49 55 51 55 2 0 -9
-23 -24 -51z m-1084 -482 c0 -2 -17 -19 -37 -38 -34 -31 -31 -21 6 24 12 15
31 23 31 14z m-6206 -1437 c18 -6 34 -27 50 -62 13 -29 42 -75 65 -103 22 -27
41 -53 41 -57 0 -31 -136 30 -187 84 -42 44 -76 118 -61 135 12 15 57 17 92 3z
m804 -300 c24 -44 65 -110 93 -146 54 -72 52 -74 -46 -29 -103 46 -245 175
-231 210 3 9 19 15 38 15 18 1 44 7 58 15 14 8 30 14 35 15 6 0 29 -36 53 -80z
m-258 46 c0 -13 -86 -76 -121 -89 -17 -5 -105 50 -95 60 10 10 143 41 179 42
25 1 37 -3 37 -13z m-197 -86 c26 -16 55 -30 64 -30 8 0 45 -30 82 -68 36 -37
80 -77 96 -89 l30 -22 -31 0 c-55 -1 -171 66 -252 145 -67 67 -82 94 -48 94 6
0 33 -13 59 -30z m1005 -680 c61 -37 122 -60 239 -90 50 -13 67 -48 38 -80
-21 -23 -169 -87 -221 -96 -106 -16 -160 67 -59 92 47 11 48 13 11 55 -40 44
-102 159 -86 159 6 0 41 -18 78 -40z m-188 -135 c9 -9 37 -21 61 -28 49 -14
60 -38 35 -72 -13 -18 -16 -18 -41 -5 -27 15 -95 94 -95 111 0 14 22 10 40 -6z" />
                <path d="M2401 4914 c-66 -25 -155 -83 -181 -117 -57 -77 -102 -152 -170 -293
-84 -170 -125 -232 -233 -354 -37 -41 -67 -78 -67 -81 0 -17 37 -18 107 -3
176 36 242 91 347 289 157 295 193 343 276 365 60 16 131 -7 199 -65 176 -150
257 -348 249 -605 -4 -133 -10 -148 -100 -258 l-60 -73 22 -126 c11 -70 23
-129 25 -131 19 -19 55 85 55 158 0 49 7 62 82 153 91 110 131 219 129 353 0
71 3 87 20 102 39 37 299 105 752 198 130 26 237 51 237 55 0 28 -408 31 -610
4 -220 -29 -218 -29 -195 -10 30 24 212 115 380 190 83 37 155 71 160 77 27
27 -295 -35 -454 -87 -58 -20 -157 -60 -219 -91 -62 -30 -117 -52 -122 -49 -5
3 -26 33 -46 68 -115 191 -250 312 -383 343 -80 19 -127 17 -200 -12z" />
                <path d="M2462 4624 c-17 -15 -31 -55 -61 -176 -22 -86 -49 -178 -61 -205 -62
-138 -75 -228 -42 -292 25 -50 63 -74 125 -79 78 -6 138 22 163 77 11 22 23
41 27 41 4 0 17 -22 29 -50 11 -27 24 -50 28 -50 8 0 38 101 42 140 3 23 5 22
37 -23 67 -93 84 -49 79 207 -3 166 -5 185 -26 228 -31 64 -105 144 -156 170
-58 30 -154 36 -184 12z" />
                <path d="M1690 3469 c-95 -55 -191 -89 -254 -89 -137 0 -236 -89 -236 -212 0
-54 -13 -79 -32 -60 -8 9 -13 41 -13 92 0 96 -10 111 -59 88 -43 -21 -85 -76
-92 -120 -8 -49 31 -117 80 -142 22 -11 67 -22 99 -24 l59 -5 -7 -118 c-4 -66
-5 -119 -2 -119 3 0 23 30 45 68 22 37 66 99 96 137 149 185 200 253 221 295
13 25 47 67 74 93 66 63 138 169 113 166 -4 0 -45 -23 -92 -50z" />
                <path d="M865 3086 c-10 -38 -15 -76 -11 -92 15 -59 78 -95 206 -119 l35 -7
-40 28 c-88 60 -123 106 -146 198 -6 25 -15 48 -19 51 -4 3 -16 -24 -25 -59z" />
                <path d="M2390 3124 c0 -3 7 -34 16 -68 22 -82 15 -221 -15 -295 -37 -93 -103
-174 -215 -268 l-49 -41 58 -68 c32 -38 77 -99 101 -135 23 -37 48 -70 54 -74
16 -10 30 13 30 52 0 40 18 47 130 45 133 -2 266 -34 413 -99 43 -19 81 -33
83 -30 8 8 -55 63 -134 118 -130 90 -249 136 -437 169 -32 5 -63 14 -68 19
-28 28 172 107 302 119 l73 7 -67 48 c-36 26 -65 53 -62 60 3 9 51 11 188 9
112 -1 178 1 169 7 -8 4 -79 37 -158 71 -79 35 -157 72 -175 84 -19 13 -50 55
-78 106 -30 54 -65 101 -95 128 -46 39 -64 50 -64 36z" />
                <path d="M915 2651 c-16 -4 -41 -13 -54 -20 -39 -21 -7 -31 109 -31 58 0 146
-7 195 -15 106 -17 105 -17 105 -7 0 15 -93 59 -148 71 -58 12 -160 13 -207 2z" />
                <path d="M952 2495 c-68 -15 -212 -80 -212 -95 0 -14 12 -13 103 12 68 18 107
22 227 22 136 -1 151 -3 243 -33 55 -18 101 -30 104 -27 9 8 -85 63 -166 97
-91 38 -200 47 -299 24z" />
                <path d="M943 2305 c-68 -22 -161 -75 -205 -119 -23 -22 -37 -41 -30 -44 6 -2
62 13 124 34 112 37 114 37 318 42 113 2 209 8 214 12 11 11 -80 57 -151 75
-69 18 -212 18 -270 0z" />
                <path d="M3405 2190 c3 -5 14 -10 23 -10 15 0 15 2 2 10 -20 13 -33 13 -25 0z" />
                <path d="M2236 1204 c-4 -10 -11 -95 -16 -189 -10 -216 -23 -254 -121 -359
-38 -40 -69 -77 -69 -80 0 -10 50 5 107 31 61 28 146 116 164 170 15 46 7 161
-21 308 -24 123 -33 147 -44 119z" />
        </g>
</svg>