<?xml version="1.0" standalone="no"?>
<svg version="1.0" xmlns="http://www.w3.org/2000/svg" id="master-logo" width="100%" height="100%" viewBox="0 0 3128.000000 3750.000000" preserveAspectRatio="xMidYMid meet">
        <g transform="translate(0.000000,3750.000000) scale(0.100000,-0.100000)">
                <path d="M14619 37419 c-25 -25 -24 -25 78 -125 39 -38 77 -81 83 -95 5 -13 20 -40 31 -59 54 -88 102 -239 119 -370 15 -115 -17 -256 -86 -373 -19 -32 -34 -60 -34 -63 0 -3 -31 -42 -69 -88 -110 -132 -241 -246 -431 -378 -62 -43 -236 -148 -245 -148 -2 0 -27 -14 -55 -30 -141 -83 -574 -301 -1053 -529 -660
-315 -992 -485 -1162 -596 -44 -28 -94 -59 -110 -68 -17 -8 -53 -33 -82 -54
-28 -21 -61 -45 -73 -53 -12 -8 -53 -37 -91 -65 -119 -87 -184 -132 -227 -156
l-41 -24 -21 20 c-11 11 -36 59 -55 105 -19 47 -52 110 -72 140 -50 74 -272
294 -358 354 -38 27 -98 68 -131 92 -75 52 -157 97 -384 211 l-175 88 -384 -2
c-561 -3 -759 -28 -777 -98 -6 -25 7 -55 41 -89 31 -30 15 -57 -57 -95 -131
-70 -183 -147 -183 -271 0 -82 19 -127 80 -183 59 -55 100 -60 120 -14 26 63
53 86 126 108 61 18 87 21 197 17 73 -3 155 -13 192 -23 230 -61 350 -204 350
-416 0 -157 -84 -396 -199 -569 -47 -70 -142 -203 -150 -210 -3 -3 -38 -43
-78 -90 -119 -141 -377 -385 -568 -535 -27 -22 -52 -42 -55 -46 -6 -6 -202
-154 -297 -224 -109 -79 -372 -258 -493 -334 -30 -19 -91 -58 -135 -86 -44
-29 -237 -145 -430 -260 -567 -337 -780 -473 -965 -614 -47 -36 -87 -68 -90
-71 -3 -3 -32 -28 -65 -54 -171 -137 -623 -590 -747 -747 -23 -30 -49 -60 -56
-68 -48 -50 -250 -331 -317 -441 -25 -41 -51 -84 -58 -95 -38 -61 -87 -149
-148 -265 -25 -48 -112 -238 -143 -315 -21 -49 -44 -104 -52 -122 -8 -17 -14
-37 -14 -45 0 -8 -4 -18 -9 -23 -5 -6 -14 -26 -19 -45 -6 -19 -27 -80 -47
-135 -20 -55 -40 -113 -45 -130 -8 -28 -14 -46 -45 -135 -7 -19 -23 -69 -35
-110 -12 -41 -26 -86 -30 -100 -8 -24 -35 -113 -67 -225 -80 -281 -119 -348
-286 -496 -276 -245 -560 -521 -689 -669 -109 -126 -240 -308 -327 -453 -75
-124 -241 -453 -241 -475 0 -5 -14 -43 -31 -83 -52 -122 -58 -142 -145 -459
-26 -93 -86 -221 -145 -310 -86 -128 -284 -359 -514 -600 -184 -192 -407 -436
-588 -642 -344 -393 -523 -632 -700 -935 -84 -143 -290 -561 -312 -633 -4 -14
-11 -29 -15 -35 -4 -5 -12 -23 -18 -40 -6 -16 -20 -55 -32 -85 -84 -216 -132
-406 -147 -577 -9 -107 19 -224 75 -321 80 -139 130 -245 167 -362 21 -63 41
-124 46 -135 4 -11 20 -49 34 -85 15 -36 31 -69 36 -74 5 -6 9 -15 9 -22 0
-24 102 -160 178 -238 96 -98 239 -193 444 -296 183 -91 251 -118 333 -131 33
-6 79 -19 103 -29 76 -34 210 -148 452 -385 427 -418 628 -537 992 -591 133
-19 386 -16 431 6 54 26 33 55 -103 136 -161 95 -408 298 -554 455 -107 115
-124 152 -88 195 46 56 269 204 307 204 29 0 63 -27 265 -209 307 -278 457
-390 677 -502 225 -115 424 -165 628 -157 67 2 80 6 80 20 0 9 -45 65 -101
125 -294 316 -426 492 -428 571 l-1 37 125 3 c201 4 824 -67 1290 -149 274
-48 340 -70 404 -139 114 -121 162 -342 215 -970 6 -69 15 -181 21 -250 16
-192 30 -471 37 -731 5 -207 4 -239 -11 -267 -11 -20 -24 -32 -37 -32 -41 0
-156 72 -289 180 -320 261 -389 308 -430 295 -11 -3 -23 -18 -26 -31 -14 -54
63 -349 146 -564 12 -30 26 -68 32 -85 6 -16 14 -34 18 -40 4 -5 22 -52 39
-102 38 -109 38 -151 -1 -172 -24 -14 -33 -13 -110 13 -70 24 -201 84 -298
137 -119 66 -296 207 -380 304 -30 35 -58 64 -61 64 -26 3 6 -186 56 -335 32
-93 138 -312 196 -404 86 -134 135 -189 308 -339 51 -44 70 -69 100 -135 52
-111 71 -155 71 -166 0 -17 88 -199 132 -271 108 -182 402 -421 588 -477 19
-6 60 -18 90 -27 77 -23 181 -86 227 -139 21 -24 79 -109 128 -188 185 -297
316 -445 492 -554 287 -178 577 -290 763 -294 131 -3 128 -4 150 40 11 21 20
50 20 64 0 14 4 36 10 50 l9 25 145 -50 c197 -67 278 -87 436 -104 246 -27
600 -14 775 28 160 39 291 98 329 149 l19 27 -34 68 c-18 37 -46 89 -60 114
-36 62 -46 122 -25 154 24 36 55 31 126 -21 81 -60 312 -285 403 -394 40 -47
80 -94 90 -105 10 -11 32 -43 48 -72 62 -109 101 -130 147 -80 58 65 104 338
121 714 6 123 15 231 20 241 7 13 36 24 93 36 46 10 124 27 173 38 94 21 252
71 295 94 14 7 72 35 130 62 131 61 334 193 465 303 133 111 375 351 375 371
0 9 -8 19 -17 23 -18 6 -169 -15 -278 -40 -184 -42 -363 -41 -535 4 -164 42
-189 50 -256 77 -102 40 -174 93 -322 238 -146 143 -205 221 -200 264 3 29 0
27 204 126 114 55 205 114 315 202 48 38 100 79 115 90 40 30 25 41 -82 60
-121 21 -253 52 -289 69 -17 7 -52 23 -78 34 -119 51 -244 168 -310 291 -72
134 -98 258 -98 469 0 89 2 165 4 169 3 4 10 50 16 102 37 316 153 568 340
738 147 133 361 245 540 282 122 26 392 28 530 4 200 -34 480 -135 706 -254
482 -255 724 -482 1263 -1186 348 -455 502 -633 832 -964 453 -455 962 -838
1416 -1067 191 -97 540 -224 754 -277 258 -62 331 -75 610 -106 397 -44 723
-117 884 -196 230 -114 500 -354 583 -518 55 -109 84 -128 122 -80 19 24 21
40 21 156 0 141 -9 191 -67 368 -57 174 -114 279 -202 372 -95 102 -242 228
-447 384 -87 67 -193 154 -234 192 -116 108 -107 110 295 50 199 -29 540 -29
745 1 189 28 391 72 565 123 77 22 154 44 170 48 43 12 388 132 465 162 85 34
273 107 435 170 72 27 139 54 150 58 63 26 213 75 314 102 107 29 131 32 306
36 159 3 198 1 247 -13 61 -19 114 -62 124 -100 10 -40 -3 -157 -24 -230 -26
-86 -27 -112 -4 -117 60 -14 346 155 415 245 52 68 57 89 57 219 -1 192 -40
286 -182 431 -208 211 -499 372 -773 426 -253 50 -255 51 -255 76 0 29 20 42
160 97 398 158 835 268 1295 325 212 26 1058 26 1230 0 444 -68 809 -308 881
-581 32 -119 1 -259 -91 -417 -35 -61 -45 -87 -40 -106 6 -25 8 -25 67 -19 98
12 247 54 333 96 144 69 322 239 351 334 27 92 54 276 54 374 0 217 -91 499
-236 730 -141 228 -301 407 -532 595 -304 247 -583 391 -963 496 -178 49 -429
107 -625 146 -40 7 -122 26 -183 40 -101 24 -112 29 -109 48 3 24 -5 21 313
96 772 183 1442 290 1900 305 343 11 707 -29 1020 -113 138 -37 369 -114 620
-206 273 -100 334 -101 299 -2 -19 53 -162 269 -253 382 -256 317 -639 674
-881 822 -385 234 -815 383 -1300 448 -226 30 -258 44 -202 83 100 72 813 404
1152 537 262 103 748 227 1000 254 381 42 742 8 1008 -95 193 -74 340 -170
543 -354 69 -62 251 -316 276 -385 7 -16 21 -55 33 -85 47 -122 73 -212 110
-380 26 -120 49 -190 61 -190 31 0 105 125 183 310 69 163 72 172 92 255 22
93 31 463 14 590 -6 50 -16 126 -21 170 -12 107 -50 267 -84 355 -7 19 -30 80
-51 135 -138 362 -380 696 -657 907 -272 208 -1007 598 -1126 598 -24 0 -33
13 -25 34 7 19 161 111 384 231 294 157 521 307 770 509 150 121 220 185 411
376 181 181 289 305 554 635 323 402 405 496 599 690 242 241 376 340 565 414
119 46 198 60 431 72 113 5 250 16 305 22 93 11 100 14 103 35 5 30 -7 43 -89
97 -189 124 -387 215 -599 274 -218 60 -297 71 -526 71 -255 0 -395 -21 -629
-93 -293 -90 -485 -186 -955 -477 -153 -96 -157 -83 -32 104 134 199 220 311
299 388 112 111 173 150 508 333 211 116 556 352 735 504 30 26 96 81 145 123
109 92 395 373 527 518 94 104 130 144 198 230 19 25 58 72 86 105 28 33 68
85 89 115 21 30 77 107 124 170 144 193 211 302 211 346 0 8 -11 20 -25 26
-33 15 -93 0 -295 -70 -217 -76 -357 -118 -520 -156 -637 -151 -1138 -187
-1625 -115 -190 27 -434 70 -565 99 -91 19 -354 89 -435 114 -22 7 -74 23
-115 36 -92 27 -287 93 -395 132 -345 124 -615 196 -915 242 -130 20 -339 21
-423 2 -59 -14 -100 -21 -282 -52 -106 -18 -115 -18 -115 5 0 28 141 115 365
225 168 82 231 104 371 128 116 20 164 22 469 23 347 0 459 -9 640 -50 33 -7
89 -20 125 -29 284 -65 549 -95 925 -103 508 -10 788 35 1059 173 199 101 363
263 435 429 12 28 26 59 31 70 5 11 19 54 31 95 20 66 23 98 23 255 0 162 -2
187 -23 254 -49 152 -144 269 -306 376 -46 30 -87 55 -90 55 -6 0 -77 30 -120
51 -27 12 -109 34 -225 60 -113 24 -389 37 -432 20 -53 -21 -29 -60 68 -109
146 -74 260 -185 317 -308 55 -119 81 -282 61 -384 -9 -45 -114 -155 -171
-180 -137 -61 -340 13 -663 241 -47 33 -104 73 -128 89 -23 16 -48 34 -55 40
-51 43 -369 275 -485 353 -127 85 -382 243 -422 261 -8 3 -31 16 -50 28 -41
25 -205 107 -270 135 -40 17 -64 27 -160 65 -54 22 -231 78 -244 78 -7 0 -36
7 -62 14 -27 8 -94 25 -149 36 -197 42 -235 54 -235 70 0 18 36 113 71 187
183 392 189 414 189 708 0 358 -53 570 -186 745 -102 134 -199 192 -359 214
-86 12 -267 3 -320 -15 -16 -6 -52 -17 -80 -24 -45 -12 -170 -68 -249 -112
-34 -18 -66 -45 -148 -126 -68 -65 -64 -74 30 -63 206 25 239 17 321 -68 105
-112 116 -177 50 -292 -87 -152 -264 -269 -459 -304 -25 -4 -72 -14 -105 -21
-42 -9 -161 -13 -400 -13 -294 -1 -350 1 -415 17 -100 24 -221 58 -240 68 -8
4 -37 15 -65 25 -121 42 -474 217 -670 330 -22 13 -47 27 -55 31 -24 11 -436
259 -545 328 -55 35 -146 92 -203 127 -57 34 -116 71 -130 80 -15 10 -36 22
-47 28 -11 5 -27 14 -35 20 -27 17 -235 137 -250 143 -8 4 -28 15 -45 25 -28
17 -84 49 -215 119 -69 38 -148 81 -225 123 -33 18 -168 88 -300 155 -209 106
-287 143 -490 236 -98 44 -284 119 -297 119 -8 0 -23 7 -34 15 -10 8 -28 15
-39 15 -12 0 -25 4 -30 9 -20 19 -390 132 -540 165 -311 69 -500 90 -975 110
-305 12 -893 7 -1015 -9 -22 -3 -98 -12 -170 -19 -218 -23 -445 -64 -610 -111
-178 -50 -296 -86 -332 -101 -17 -8 -40 -14 -50 -14 -10 0 -23 -4 -28 -9 -6
-5 -26 -14 -45 -19 -54 -16 -123 -41 -140 -51 -9 -5 -30 -12 -48 -15 -17 -4
-34 -12 -37 -17 -4 -5 -13 -9 -22 -9 -8 0 -29 -6 -46 -14 -71 -32 -239 -85
-252 -79 -22 8 -19 19 24 108 153 316 196 529 188 935 -8 442 -72 698 -225
900 -148 196 -327 307 -587 365 -33 8 -78 18 -100 24 -22 6 -82 11 -132 11
-81 0 -96 -3 -114 -21z m444 -200 c34 -17 127 -118 175 -187 23 -34 42 -65 42
-67 0 -2 14 -24 30 -48 17 -25 30 -48 30 -52 0 -3 12 -32 26 -63 72 -156 103
-316 103 -537 0 -195 -37 -470 -93 -690 -32 -127 -38 -151 -52 -182 -8 -17
-14 -38 -14 -46 0 -9 -4 -18 -9 -22 -5 -3 -13 -20 -16 -37 -6 -28 -120 -261
-199 -408 -13 -25 -31 -62 -40 -82 -15 -36 -15 -38 5 -48 24 -13 107 -6 194
16 113 29 170 43 320 79 83 19 166 40 185 45 46 13 163 39 220 50 25 4 101 19
170 33 202 40 448 76 703 102 112 12 263 17 515 17 361 1 498 -8 748 -48 49
-8 106 -14 126 -14 19 0 66 -6 104 -14 38 -8 114 -22 169 -31 55 -9 120 -21
145 -27 25 -6 72 -16 105 -23 95 -21 174 -42 260 -70 44 -14 103 -32 130 -40
82 -25 167 -53 225 -75 30 -12 69 -26 85 -31 17 -5 39 -13 50 -18 11 -5 61
-23 110 -41 50 -18 104 -38 120 -46 17 -7 91 -38 165 -69 74 -31 144 -60 155
-65 11 -5 43 -19 70 -31 28 -12 91 -41 140 -64 50 -23 119 -55 155 -71 77 -34
616 -305 710 -356 36 -19 101 -55 145 -79 44 -23 98 -53 120 -66 22 -12 47
-26 55 -30 13 -6 413 -240 450 -263 62 -38 203 -122 239 -141 24 -13 51 -28
60 -34 17 -11 99 -58 166 -96 170 -96 474 -241 615 -294 369 -138 439 -149
1010 -149 463 0 521 5 675 55 116 38 287 122 395 194 60 40 185 157 228 215
59 79 107 182 125 270 6 25 12 122 14 217 5 201 10 214 66 157 133 -138 151
-413 46 -714 -85 -245 -266 -571 -419 -755 -39 -47 -113 -115 -141 -130 -23
-13 -141 -42 -319 -81 -77 -17 -106 -25 -245 -68 -105 -33 -149 -49 -219 -80
-32 -14 -63 -26 -69 -26 -12 0 -387 -185 -487 -241 -41 -23 -133 -76 -205
-119 -71 -42 -137 -80 -145 -83 -8 -4 -22 -11 -30 -17 -73 -48 -259 -144 -395
-205 -33 -15 -85 -38 -115 -52 -30 -14 -66 -29 -80 -34 -14 -4 -50 -17 -80
-29 -77 -29 -152 -53 -245 -79 -44 -12 -96 -26 -115 -32 -195 -55 -557 -83
-755 -59 -190 23 -375 50 -435 64 -14 3 -65 15 -115 26 -119 28 -222 53 -320
80 -44 12 -93 26 -110 30 -110 30 -477 151 -532 176 -17 8 -36 14 -42 14 -6 0
-25 6 -43 14 -36 15 -50 21 -288 111 -52 20 -104 40 -115 45 -11 5 -81 29
-156 54 -199 67 -231 61 -137 -27 92 -86 266 -192 564 -341 121 -61 234 -116
250 -123 16 -6 63 -26 104 -43 41 -18 86 -36 100 -40 14 -5 50 -18 80 -30 88
-34 196 -68 335 -106 33 -9 78 -22 100 -29 22 -8 92 -23 155 -35 63 -12 135
-26 160 -32 226 -52 738 -81 1010 -58 290 25 411 46 605 106 155 48 401 155
505 219 19 12 67 39 105 60 39 20 77 43 85 50 8 6 22 15 30 18 8 4 49 29 90
56 41 27 99 65 129 83 29 18 64 40 76 48 13 8 57 35 97 59 40 24 98 61 128 81
30 21 102 63 159 95 56 31 131 72 165 91 59 34 224 115 337 167 62 29 129 54
174 66 17 5 41 13 55 19 49 20 208 44 256 39 258 -27 528 -86 909 -199 92 -27
345 -112 415 -138 30 -12 69 -26 85 -32 17 -6 35 -14 40 -18 6 -4 21 -11 35
-15 34 -10 265 -125 317 -158 24 -15 45 -27 48 -27 3 0 36 -20 73 -43 56 -37
159 -100 230 -142 18 -11 70 -46 235 -158 123 -84 245 -177 277 -211 30 -33
16 -47 -38 -36 -63 13 -281 68 -291 74 -5 4 -29 11 -53 16 -24 5 -68 16 -98
25 -188 55 -578 150 -674 165 -28 4 -78 14 -111 21 -41 9 -146 13 -335 13
-283 1 -296 -1 -505 -49 -33 -8 -76 -17 -95 -20 -78 -15 -343 -110 -458 -166
-67 -32 -125 -59 -129 -59 -3 0 -35 -20 -72 -44 -36 -24 -100 -65 -141 -91
-71 -46 -205 -151 -351 -274 -380 -321 -641 -499 -1024 -696 -98 -50 -318
-145 -337 -145 -8 0 -18 -4 -23 -8 -30 -26 -455 -142 -520 -142 -16 0 -67 -7
-114 -16 -223 -42 -468 6 -806 156 -11 5 -36 15 -55 23 -19 9 -70 31 -113 51
-44 20 -81 36 -83 36 -2 0 -32 13 -66 29 -105 49 -175 80 -368 163 -102 43
-203 88 -225 98 -22 10 -80 35 -130 55 -49 19 -99 40 -110 45 -11 5 -63 25
-115 45 -89 34 -142 54 -199 77 -36 14 -289 97 -341 113 -319 92 -357 102
-627 169 -32 8 -96 22 -143 31 -47 9 -116 23 -155 31 -122 24 -228 42 -285 49
-30 4 -91 13 -135 20 -44 7 -156 20 -250 29 -93 9 -215 21 -270 27 -55 6 -276
13 -492 16 -473 7 -718 -6 -1258 -68 -206 -23 -302 -38 -585 -88 -63 -11 -131
-23 -150 -26 -19 -3 -69 -13 -110 -21 -41 -9 -109 -22 -150 -31 -116 -23 -201
-48 -201 -59 0 -43 572 -69 1781 -79 344 -3 677 -10 740 -16 63 -5 176 -14
250 -19 171 -12 386 -35 470 -49 36 -6 119 -20 185 -31 66 -10 163 -29 215
-41 52 -11 113 -25 135 -29 45 -9 294 -73 340 -88 17 -6 77 -25 135 -42 127
-39 184 -58 315 -106 55 -19 141 -50 190 -68 78 -29 146 -55 220 -87 118 -50
215 -89 220 -89 3 0 34 -13 68 -29 34 -16 106 -50 160 -75 55 -25 101 -46 103
-46 19 0 516 -261 632 -332 34 -21 65 -38 67 -38 7 0 255 -149 375 -225 58
-37 125 -79 148 -93 55 -34 198 -128 322 -214 52 -35 138 -94 190 -130 270
-184 811 -592 909 -684 57 -54 73 -75 68 -88 -6 -15 -14 -17 -50 -12 -23 4
-64 13 -92 21 -27 9 -72 22 -100 30 -64 19 -238 72 -290 90 -22 7 -74 23 -115
36 -178 53 -766 245 -1530 499 -598 198 -983 324 -1155 377 -27 9 -68 21 -90
28 -22 7 -74 23 -115 35 -41 12 -86 25 -100 30 -24 8 -114 34 -175 51 -301 80
-485 124 -655 155 -261 47 -412 69 -595 84 -60 6 -189 17 -285 27 -141 13
-286 17 -745 17 -512 0 -593 -2 -800 -22 -126 -12 -261 -27 -300 -32 -38 -5
-140 -18 -225 -30 -163 -21 -288 -41 -405 -65 -38 -8 -119 -23 -180 -35 -60
-12 -126 -25 -145 -30 -19 -5 -102 -26 -185 -45 -193 -46 -248 -60 -370 -96
-229 -69 -306 -93 -415 -131 -63 -21 -169 -57 -235 -79 -66 -22 -129 -44 -140
-49 -11 -5 -63 -26 -115 -45 -82 -31 -293 -117 -355 -145 -11 -5 -47 -21 -80
-35 -129 -57 -243 -117 -260 -135 -15 -17 -15 -19 3 -24 11 -4 42 -2 68 4 27
7 69 15 94 20 25 4 88 18 140 29 52 12 129 29 170 37 74 15 156 33 275 59 127
27 224 45 320 60 55 8 159 23 230 35 174 27 357 49 485 60 58 4 155 13 215 19
262 26 744 40 1050 31 165 -5 329 -12 365 -14 429 -34 481 -40 765 -82 188
-28 290 -46 350 -59 74 -17 237 -52 330 -71 89 -19 194 -47 380 -100 50 -14
110 -32 135 -39 159 -46 358 -125 391 -157 38 -34 36 -46 -7 -64 -59 -25 -401
-45 -1019 -60 -224 -5 -655 -31 -664 -39 -14 -15 39 -53 129 -92 117 -50 135
-56 305 -114 66 -22 129 -44 140 -49 18 -8 182 -64 630 -215 272 -91 775 -239
1090 -320 246 -63 410 -104 475 -119 157 -37 250 -58 315 -72 39 -9 88 -19
110 -24 22 -5 56 -12 75 -15 19 -4 67 -13 105 -21 150 -32 213 -44 295 -58 47
-8 123 -22 170 -30 283 -50 351 -61 490 -81 146 -21 236 -33 340 -44 52 -6
172 -20 265 -30 277 -32 756 -63 1245 -81 140 -5 318 -16 395 -25 77 -8 148
-15 157 -15 10 0 22 -9 28 -21 10 -18 5 -27 -42 -72 -30 -29 -97 -88 -148
-132 -52 -44 -119 -103 -150 -131 -368 -340 -623 -458 -1130 -524 -334 -44
-1759 -37 -2120 9 -85 11 -193 25 -240 31 -47 6 -92 13 -100 15 -8 3 -78 16
-155 30 -77 14 -194 39 -260 55 -66 16 -160 39 -210 51 -49 12 -98 25 -110 29
-11 4 -47 15 -80 25 -509 143 -1052 359 -1660 661 -230 115 -266 95 -105 -59
88 -86 253 -225 314 -267 12 -8 114 -81 227 -162 271 -193 549 -368 824 -518
255 -139 284 -154 390 -202 55 -25 132 -61 170 -78 516 -238 1252 -459 1760
-530 315 -43 365 -49 535 -65 96 -9 209 -20 250 -26 41 -5 116 -11 165 -14
134 -9 155 -13 155 -33 0 -40 -252 -192 -462 -280 -360 -151 -584 -208 -973
-252 -222 -25 -686 -28 -890 -6 -236 26 -410 47 -425 51 -8 3 -91 18 -185 34
-93 17 -197 37 -230 44 -33 8 -104 25 -158 37 -220 48 -806 227 -1012 308 -27
11 -87 34 -133 51 -261 98 -617 261 -1362 623 -118 58 -235 114 -260 126 -130
60 -189 86 -273 123 -50 22 -105 47 -122 54 -323 145 -743 275 -1040 321 -165
26 -704 26 -900 1 -365 -48 -649 -127 -827 -232 -56 -32 -78 -51 -78 -65 0
-11 3 -20 8 -20 8 0 338 -24 562 -40 80 -6 170 -15 200 -20 30 -5 87 -12 125
-15 204 -19 643 -114 855 -185 328 -111 583 -214 990 -403 198 -92 313 -146
695 -332 881 -428 1320 -607 1810 -738 514 -138 935 -215 1380 -254 257 -22
1171 -26 1330 -5 331 44 539 100 835 229 536 233 904 514 1255 957 81 102 336
474 356 520 5 12 19 37 30 56 12 19 46 78 77 130 98 168 152 248 172 253 24 6
25 -3 5 -63 -34 -106 -122 -300 -208 -455 -18 -33 -50 -90 -70 -128 -56 -101
-186 -291 -262 -382 -174 -208 -306 -338 -630 -615 -92 -80 -388 -295 -565
-411 -414 -273 -928 -526 -1330 -656 -609 -196 -1040 -283 -1545 -313 -691
-41 -1842 -35 -1962 11 -23 8 -32 42 -15 53 5 3 97 23 204 45 374 77 575 130
601 159 15 16 15 19 -2 29 -23 15 -98 28 -276 48 -582 67 -977 138 -1980 356
-49 11 -146 31 -215 44 -69 13 -147 29 -175 34 -176 35 -440 76 -625 97 -192
22 -845 30 -1105 15 -499 -30 -727 -84 -1097 -259 -187 -89 -248 -134 -248
-183 0 -33 36 -63 150 -127 72 -41 454 -221 570 -270 41 -17 149 -62 240 -100
406 -172 1158 -468 1745 -689 618 -233 924 -333 1245 -406 603 -139 1144 -187
2131 -187 608 0 719 -5 719 -29 0 -13 -85 -37 -437 -124 -241 -60 -448 -113
-461 -118 -38 -15 -26 -51 23 -67 148 -49 742 -106 1518 -146 141 -7 260 -16
263 -19 15 -15 -28 -44 -145 -99 -448 -212 -831 -320 -1349 -378 -517 -58
-1469 -56 -1970 5 -812 98 -1391 257 -2355 645 -206 82 -382 150 -391 150 -46
0 -4 -39 224 -205 263 -192 529 -422 894 -774 272 -262 433 -427 735 -756 162
-176 475 -567 493 -617 19 -50 -29 -16 -197 138 -55 50 -131 120 -170 154 -38
35 -106 96 -150 136 -112 101 -365 308 -522 425 -467 351 -954 628 -1363 772
-170 60 -180 62 -180 38 0 -31 57 -65 495 -296 110 -58 305 -175 338 -203 9
-8 17 -22 17 -30 0 -21 -59 -10 -215 42 -234 78 -312 95 -560 118 -195 18
-1296 18 -1490 0 -600 -57 -909 -146 -1480 -427 -243 -120 -335 -177 -335
-207 0 -19 4 -20 58 -14 31 4 129 22 217 42 237 52 474 101 522 107 26 3 49 0
59 -8 16 -11 15 -17 -18 -76 -35 -62 -101 -163 -233 -354 -51 -75 -130 -203
-177 -290 -110 -199 -181 -405 -210 -605 -29 -200 -17 -860 19 -990 81 -300
284 -547 544 -661 135 -60 153 -79 73 -79 -57 0 -157 22 -304 67 -279 86 -320
89 -333 24 -8 -37 8 -173 23 -201 5 -10 10 -26 10 -34 0 -44 109 -256 191
-372 84 -117 252 -290 370 -380 103 -78 222 -148 332 -195 132 -56 163 -61
452 -68 149 -4 278 -11 287 -15 45 -20 -33 -67 -212 -128 -163 -56 -249 -70
-465 -75 -205 -6 -276 1 -490 44 -81 16 -270 68 -380 104 -104 34 -242 69
-274 69 -40 0 -48 -19 -31 -73 11 -39 101 -229 119 -252 5 -5 23 -37 41 -70
18 -33 66 -112 106 -175 84 -131 233 -379 258 -427 20 -39 21 -83 2 -83 -17 0
-81 55 -221 192 -136 133 -224 203 -340 272 -185 109 -298 149 -421 149 -97 0
-143 -22 -174 -84 -69 -135 56 -423 292 -675 36 -38 71 -80 78 -93 l12 -24
-133 6 c-675 32 -837 78 -1099 316 -129 117 -222 233 -406 506 -48 72 -122
176 -163 232 -88 119 -105 126 -149 63 -30 -43 -59 -51 -84 -22 -18 19 -58
105 -58 122 0 6 -11 32 -25 59 -25 51 -49 69 -62 48 -4 -7 -7 -97 -6 -202 2
-192 19 -332 49 -403 8 -18 14 -37 14 -43 0 -12 60 -133 152 -309 87 -165 128
-268 128 -317 0 -77 -27 -71 -172 39 -98 74 -305 273 -374 359 -125 157 -199
318 -248 544 -10 44 -24 107 -31 140 -8 33 -17 78 -20 100 -4 22 -13 64 -21
92 l-15 53 -337 0 c-385 0 -436 6 -569 71 -65 31 -104 59 -178 130 -148 142
-220 256 -182 287 19 16 130 5 337 -34 115 -21 178 -27 305 -28 l160 -1 60 34
c61 35 187 127 355 261 197 156 339 252 488 327 128 65 196 131 251 244 22 47
41 91 41 97 0 7 4 20 9 30 10 18 37 104 65 207 9 33 23 83 31 111 8 28 15 58
15 66 0 9 6 38 14 64 8 27 20 74 26 104 47 218 85 408 114 575 8 44 19 107 25
140 16 89 38 226 55 345 49 340 50 355 50 600 0 225 -2 252 -23 325 -68 239
-209 423 -683 890 -439 434 -663 607 -918 709 -183 73 -345 99 -715 115 -111
5 -189 12 -203 20 -22 12 -23 17 -19 79 2 37 14 99 26 137 40 133 62 317 59
512 -3 173 -4 178 -24 181 -26 4 -51 -36 -78 -123 -91 -295 -163 -418 -371
-634 -147 -153 -319 -284 -521 -399 -358 -204 -971 -390 -1469 -448 -71 -8
-157 -20 -190 -25 -90 -17 -579 -24 -645 -10 -119 25 -224 100 -359 256 -208
241 -291 418 -331 710 -16 112 5 184 88 308 82 122 145 235 231 412 100 204
103 211 137 300 65 171 83 250 70 320 -6 31 -10 35 -39 35 -45 0 -110 -40
-282 -174 -426 -331 -581 -439 -760 -528 -126 -64 -272 -109 -370 -115 -71 -5
-83 -3 -107 16 -39 31 -44 74 -18 165 20 72 103 278 120 301 4 6 25 42 45 80
96 179 301 421 505 595 120 103 313 247 407 305 195 120 266 160 398 227 83
41 242 115 355 162 217 92 290 126 290 137 0 15 -35 18 -128 13 -216 -12 -431
-69 -827 -219 -132 -50 -145 -52 -145 -24 0 18 70 94 277 299 313 311 599 580
656 618 34 23 39 24 55 9 9 -9 27 -35 38 -59 12 -24 38 -76 58 -116 82 -166
190 -289 325 -367 84 -50 133 -64 156 -45 21 17 9 35 -110 156 -76 78 -103
115 -140 187 -25 49 -45 98 -45 109 0 11 -7 41 -16 69 -31 93 -10 414 36 564
5 17 19 64 31 105 11 41 27 89 35 107 8 17 14 36 14 42 0 6 6 25 14 43 8 18
22 53 32 78 54 138 211 456 272 550 19 30 56 87 81 125 175 271 441 548 746
776 97 72 142 102 365 242 313 196 330 210 330 275 0 20 7 72 15 115 8 43 15
99 15 124 0 25 7 91 15 147 44 307 58 392 65 411 5 11 18 65 30 120 23 104 43
175 64 235 25 68 38 105 46 135 24 83 159 398 221 512 23 43 62 116 87 163 43
82 296 472 324 501 8 8 57 70 110 139 53 69 106 137 119 151 13 14 56 61 94
104 324 367 611 620 1020 900 55 38 129 89 165 114 36 25 106 72 155 104 813
538 1184 805 1440 1037 144 130 531 527 645 661 248 289 363 509 414 784 38
210 1 406 -106 557 -40 56 -68 79 -139 115 -88 44 -169 54 -484 61 -254 6
-294 9 -318 25 -113 74 153 214 488 258 138 18 144 19 160 36 14 13 14 18 2
32 -8 9 -17 25 -21 35 -6 18 -2 19 101 12 306 -20 473 -71 780 -237 165 -89
435 -300 518 -405 17 -21 49 -60 72 -87 54 -64 136 -202 203 -340 28 -60 59
-111 67 -114 18 -7 20 -6 160 88 54 37 134 86 178 110 291 156 459 240 1100
549 401 193 1069 530 1263 636 129 71 378 223 461 281 212 148 453 368 596
544 210 257 281 494 226 759 -21 99 -42 184 -60 235 -24 69 -42 157 -36 175 7
23 26 25 58 9z m12685 -8166 c80 -40 110 -72 140 -148 18 -47 38 -152 35 -185
-9 -81 -25 -195 -29 -199 -7 -8 -33 32 -44 69 -38 121 -119 283 -182 363 -85
110 -98 129 -92 139 12 19 97 -1 172 -39z m96 -699 c9 -24 7 -67 -4 -84 -9
-13 -12 -12 -25 4 -18 23 -19 50 -5 77 13 23 26 24 34 3z m-127 -356 c-50
-104 -118 -201 -227 -324 -150 -170 -385 -361 -620 -505 -47 -29 -114 -71
-150 -94 -36 -23 -126 -72 -200 -110 -74 -37 -139 -71 -145 -75 -5 -4 -37 -19
-70 -33 -33 -14 -91 -40 -130 -57 -38 -17 -90 -41 -114 -51 -24 -11 -98 -41
-165 -66 -66 -25 -143 -54 -171 -65 -27 -10 -70 -26 -95 -35 -53 -18 -261 -96
-307 -114 -77 -31 -23 -41 157 -28 359 24 441 29 533 29 76 0 97 -3 97 -14 0
-14 -139 -136 -225 -197 -52 -37 -365 -226 -502 -302 -43 -24 -132 -74 -198
-112 -107 -60 -162 -91 -350 -195 -47 -26 -85 -48 -232 -133 -160 -92 -222
-144 -192 -162 28 -18 777 165 1039 255 250 85 462 132 810 180 248 35 404 68
670 145 79 22 253 86 320 117 36 16 92 41 125 55 150 63 518 261 743 400 324
200 506 305 667 388 99 50 194 97 210 103 17 6 55 20 85 32 204 78 361 114
570 131 170 13 410 3 417 -17 2 -7 -57 -34 -139 -64 -79 -29 -163 -61 -188
-73 -25 -11 -72 -32 -105 -47 -33 -15 -95 -48 -138 -74 -43 -25 -80 -46 -82
-46 -12 0 -206 -147 -295 -224 -122 -104 -456 -437 -650 -646 -120 -129 -244
-260 -381 -400 -234 -241 -652 -570 -999 -787 -267 -166 -703 -401 -905 -486
-33 -14 -94 -41 -135 -60 -41 -19 -138 -62 -215 -96 -220 -97 -359 -173 -363
-197 -2 -11 3 -26 10 -32 14 -12 268 -100 383 -133 92 -27 141 -41 250 -74 50
-14 137 -40 195 -56 254 -73 574 -182 599 -205 7 -6 10 -18 6 -24 -9 -14 -24
-13 -385 45 -324 51 -457 59 -935 60 -633 0 -786 -16 -1552 -165 -108 -21
-143 -22 -143 -1 0 11 178 170 355 316 191 158 351 301 374 333 25 36 27 67 5
76 -58 22 -538 -131 -1064 -341 -300 -119 -434 -177 -853 -370 -160 -74 -232
-102 -239 -95 -12 12 16 52 197 282 194 246 398 542 481 697 20 38 40 73 44
78 41 53 240 483 240 517 0 8 4 18 8 24 13 13 58 161 98 314 28 112 76 261
100 317 8 17 14 34 14 39 0 7 22 55 73 164 12 25 46 86 75 135 159 266 343
444 642 620 84 49 110 73 110 101 0 18 -10 26 -47 40 -64 23 -75 32 -64 53 9
17 69 34 251 71 100 21 267 63 375 95 101 29 291 87 315 95 14 5 99 32 190 60
171 53 221 69 280 89 19 6 130 43 245 82 194 64 327 111 415 144 113 43 282
111 325 130 28 12 79 35 115 51 267 118 481 279 700 527 41 47 79 82 84 77 4
-5 -8 -41 -27 -82z m-4035 -1844 c-4 -24 -127 -144 -148 -144 -19 0 33 79 89
133 41 39 64 44 59 11z m-22782 -5241 c76 -20 113 -45 154 -103 20 -28 36 -52
36 -55 0 -2 30 -59 66 -125 76 -140 154 -257 255 -385 87 -110 99 -133 88
-162 -16 -44 -108 -22 -299 68 -208 99 -368 227 -463 372 -97 147 -152 292
-129 341 31 68 149 88 292 49z m2828 -844 c21 -19 61 -77 87 -124 151 -274
322 -546 458 -725 31 -42 63 -92 72 -113 14 -34 14 -37 -3 -46 -13 -7 -38 -1
-92 20 -321 128 -589 305 -835 553 -93 94 -139 149 -162 194 -58 110 -45 126
132 158 93 17 148 33 213 63 48 22 92 41 98 41 5 0 20 -9 32 -21z m-800 -71
c38 -38 -20 -102 -204 -228 -135 -92 -189 -120 -234 -120 -75 0 -320 151 -320
197 0 22 44 42 166 74 216 57 383 87 484 88 62 1 100 -3 108 -11z m-835 -269
c34 -18 112 -60 172 -94 61 -34 137 -72 169 -84 94 -35 171 -96 386 -310 128
-127 336 -311 351 -311 5 0 9 -10 9 -21 0 -21 -3 -22 -82 -17 -96 7 -177 32
-303 95 -166 83 -307 176 -465 307 -161 134 -345 333 -364 394 -5 13 -5 34 -2
48 9 34 51 32 129 -7z m3657 -2476 c35 -19 121 -67 190 -106 218 -124 407
-197 752 -292 219 -60 282 -106 282 -203 0 -69 -30 -112 -117 -166 -129 -80
-425 -210 -622 -272 -77 -25 -106 -29 -205 -29 -99 0 -124 3 -178 25 -89 35
-132 83 -132 148 0 27 7 57 15 70 24 34 92 68 190 97 49 14 93 31 97 38 17 27
5 59 -48 124 -126 155 -204 274 -284 435 -23 45 -46 91 -51 100 -11 21 -12 62
-2 71 9 10 38 0 113 -40z m-580 -557 c14 -7 54 -31 90 -52 36 -22 97 -50 135
-63 178 -61 225 -96 225 -169 0 -32 -9 -57 -34 -97 -49 -76 -84 -82 -167 -29
-76 47 -245 233 -308 337 -41 68 -8 110 59 73z" />
                <path d="M9100 31630 c-52 -9 -111 -22 -130 -28 -19 -7 -63 -21 -98 -32 -35
-12 -71 -25 -80 -30 -9 -6 -47 -23 -84 -39 -69 -31 -237 -127 -344 -199 -155
-103 -266 -241 -474 -587 -100 -166 -114 -192 -306 -575 -154 -307 -270 -525
-357 -670 -57 -95 -187 -289 -226 -336 -14 -17 -48 -60 -76 -95 -57 -74 -144
-175 -316 -374 -67 -77 -133 -157 -147 -178 -24 -36 -24 -38 -7 -57 16 -17 31
-20 111 -20 88 0 113 3 264 35 378 81 593 177 779 350 168 157 316 373 526
770 32 61 61 115 65 120 4 6 34 60 65 120 32 61 69 127 82 147 12 21 23 40 23
43 0 11 232 398 278 465 74 107 176 223 233 266 80 61 145 91 259 120 194 48
463 -41 680 -224 96 -81 294 -284 370 -377 99 -123 228 -322 285 -441 26 -55
55 -116 66 -137 10 -21 19 -42 19 -48 0 -6 6 -25 14 -42 21 -47 75 -211 86
-259 5 -24 16 -72 24 -108 55 -249 66 -369 66 -747 0 -288 -3 -344 -20 -431
-42 -214 -71 -262 -456 -737 l-96 -119 6 -61 c5 -55 15 -114 51 -315 8 -41 21
-120 30 -175 9 -55 23 -129 30 -165 7 -36 16 -87 20 -113 3 -26 13 -63 21 -82
24 -59 57 -43 104 52 16 34 30 69 30 78 0 9 5 26 11 37 22 40 40 143 58 334
25 251 29 257 276 564 223 278 347 493 418 725 58 192 75 316 81 585 9 373 23
397 281 501 78 31 229 80 322 105 29 8 77 21 105 29 150 40 232 61 433 111
121 30 234 58 250 63 17 5 75 19 130 31 55 12 128 28 163 36 34 8 90 20 125
28 34 8 96 22 137 31 41 9 104 23 140 31 59 13 166 35 450 95 52 11 124 26
160 33 36 8 101 22 145 31 159 31 231 46 290 60 33 7 94 20 135 29 140 30 255
56 290 66 19 5 50 13 69 18 34 8 62 35 49 47 -37 37 -599 70 -1048 61 -671
-14 -1008 -37 -1390 -96 -36 -6 -103 -15 -150 -20 -47 -6 -116 -14 -155 -20
-91 -12 -176 -12 -195 0 -19 12 -11 18 142 109 98 59 638 332 818 414 30 13
84 38 120 55 36 16 97 44 135 62 122 55 147 67 258 119 60 28 110 51 112 51 3
0 57 25 122 56 272 129 291 140 266 165 -15 15 -240 -13 -536 -65 -48 -8 -91
-17 -95 -20 -5 -3 -35 -9 -68 -15 -65 -11 -249 -51 -434 -96 -69 -16 -269 -69
-335 -89 -27 -8 -68 -20 -90 -26 -63 -18 -271 -93 -330 -120 -11 -5 -49 -20
-85 -34 -94 -36 -290 -120 -384 -165 -151 -72 -256 -120 -309 -142 -28 -12
-65 -27 -82 -34 -16 -7 -53 -21 -82 -31 -50 -18 -52 -18 -72 0 -20 19 -121
161 -121 172 0 3 -19 35 -43 72 -24 37 -66 102 -93 145 -56 89 -219 309 -296
400 -155 183 -367 377 -513 471 -33 21 -78 50 -100 65 -46 31 -235 120 -280
132 -16 5 -70 19 -120 33 -78 21 -209 41 -325 49 -19 2 -78 -4 -130 -13z" />
                <path d="M9149 30530 c-49 -8 -93 -32 -121 -65 -26 -31 -75 -149 -102 -245 -8
-30 -24 -89 -36 -130 -24 -84 -40 -145 -65 -240 -9 -36 -23 -87 -30 -115 -8
-27 -21 -79 -31 -115 -9 -36 -22 -85 -30 -110 -7 -25 -23 -79 -35 -120 -41
-144 -87 -276 -139 -395 -29 -66 -56 -133 -61 -150 -4 -16 -18 -57 -29 -90
-46 -127 -89 -337 -90 -437 0 -63 22 -179 47 -248 27 -72 97 -172 152 -217 29
-23 87 -56 129 -74 74 -31 83 -32 242 -36 147 -4 172 -2 229 16 35 12 68 21
73 21 17 0 143 88 174 122 26 28 93 131 105 163 15 37 54 85 70 85 22 0 54
-52 113 -183 83 -184 96 -192 140 -87 22 54 76 245 96 345 28 136 29 137 52
121 11 -8 44 -46 73 -84 107 -145 169 -202 211 -194 58 11 80 86 100 349 15
207 13 402 -11 1038 -6 155 -24 241 -73 347 -77 169 -267 408 -422 531 -36 28
-67 54 -70 57 -19 22 -122 73 -197 98 -135 46 -335 64 -464 42z" />
                <path d="M6450 26384 c-47 -25 -148 -81 -225 -123 -77 -43 -176 -96 -220 -118
-195 -100 -489 -195 -640 -207 -266 -22 -374 -43 -497 -99 -148 -68 -269 -177
-348 -314 -68 -120 -82 -178 -110 -472 -7 -75 -13 -98 -31 -117 -27 -28 -37
-29 -67 -6 -36 28 -53 128 -58 352 -9 336 -44 387 -208 310 -71 -34 -193 -140
-234 -204 -88 -135 -112 -198 -112 -291 0 -152 118 -354 260 -445 93 -59 347
-119 512 -120 98 0 99 -3 93 -163 -3 -73 -10 -190 -15 -262 -17 -242 -22 -373
-15 -404 6 -27 8 -29 26 -18 11 7 45 55 76 107 159 268 317 488 603 840 281
346 561 724 615 830 22 43 118 183 158 230 17 19 80 87 142 151 164 170 318
368 388 496 20 38 23 93 5 93 -7 0 -51 -21 -98 -46z" />
                <path d="M3242 24998 c-72 -164 -113 -439 -78 -523 81 -191 269 -300 666 -385
179 -38 183 -24 25 86 -161 111 -295 241 -345 331 -9 16 -32 57 -52 93 -47 83
-69 142 -113 305 -26 96 -42 130 -63 133 -16 2 -25 -7 -40 -40z" />
                <path d="M8793 24984 c-6 -16 1 -53 32 -174 51 -201 50 -190 50 -515 -1 -332
-8 -398 -65 -575 -33 -101 -155 -336 -225 -434 -135 -190 -339 -404 -562 -592
-190 -160 -187 -157 -180 -185 4 -13 21 -40 38 -59 127 -144 212 -249 336
-415 66 -88 165 -227 221 -310 115 -170 127 -185 164 -209 24 -16 29 -16 51
-1 27 17 51 95 62 199 13 120 76 146 351 146 378 0 702 -47 1065 -154 168 -50
337 -112 684 -254 151 -62 171 -67 179 -46 8 21 0 30 -112 130 -106 95 -230
189 -405 308 -434 296 -865 466 -1477 581 -268 51 -340 75 -340 114 0 66 296
212 620 307 190 55 509 114 620 114 63 0 102 14 94 35 -4 8 -43 41 -88 72
-129 91 -239 178 -284 227 -74 80 -56 96 111 107 67 4 298 5 512 2 438 -5 578
2 583 29 4 20 16 14 -438 215 -403 179 -681 314 -745 362 -70 53 -143 152
-275 371 -150 249 -208 328 -320 440 -92 92 -207 180 -236 180 -8 0 -17 -7
-21 -16z" />
                <path d="M3510 23274 c-180 -21 -380 -97 -380 -144 0 -46 93 -58 510 -70 359
-10 479 -21 874 -85 103 -17 116 -18 135 -6 46 29 -53 101 -252 184 -243 102
-324 117 -632 122 -121 2 -236 1 -255 -1z" />
                <path d="M3730 22714 c-14 -3 -70 -12 -125 -20 -168 -26 -406 -108 -655 -225
-177 -84 -232 -129 -194 -160 19 -16 71 -7 299 51 325 82 478 100 865 100 437
0 576 -19 905 -122 290 -90 344 -103 362 -85 13 13 3 22 -84 79 -255 169 -583
308 -843 359 -80 16 -154 22 -305 24 -110 2 -211 1 -225 -1z" />
                <path d="M3685 22020 c-49 -5 -117 -15 -150 -23 -128 -30 -346 -131 -535 -246
-210 -127 -393 -296 -374 -345 11 -30 61 -18 444 104 403 129 449 135 1070
150 400 9 664 21 798 37 71 8 84 31 40 68 -88 74 -428 206 -618 239 -111 20
-532 30 -675 16z" />
                <path d="M12523 21583 c-23 -9 16 -53 48 -53 41 0 44 16 5 39 -18 12 -35 21
-37 20 -2 0 -10 -3 -16 -6z" />
                <path d="M8226 17953 c-25 -87 -47 -336 -66 -738 -5 -121 -14 -256 -19 -300
-6 -44 -13 -109 -16 -145 -10 -111 -54 -305 -84 -375 -70 -158 -128 -242 -293
-424 -180 -199 -268 -304 -268 -323 0 -13 8 -18 26 -18 55 0 314 101 421 164
184 109 420 355 504 524 43 87 52 175 45 419 -6 220 -26 389 -77 668 -6 33
-17 92 -24 130 -29 157 -68 326 -90 388 -18 49 -48 65 -59 30z" />
                <path d="M3710 13319 c-100 -8 -159 -18 -300 -51 -218 -50 -420 -159 -420
-227 0 -23 45 -86 129 -182 67 -76 111 -156 111 -201 0 -71 -108 -302 -638
-1358 -421 -842 -519 -1031 -823 -1605 -21 -38 -51 -97 -68 -130 -17 -33 -58
-109 -91 -170 -33 -60 -74 -137 -91 -170 -17 -33 -36 -69 -42 -80 -7 -11 -39
-68 -71 -125 -33 -58 -81 -142 -108 -188 -26 -45 -48 -85 -48 -87 0 -2 -19
-37 -43 -77 -24 -40 -46 -80 -50 -88 -4 -8 -17 -31 -28 -50 -12 -19 -61 -102
-110 -185 -106 -177 -82 -138 -220 -360 -109 -176 -350 -540 -450 -680 -191
-267 -236 -406 -159 -484 35 -34 162 -71 246 -71 192 0 511 97 753 230 317
174 545 388 771 725 104 157 185 294 322 550 38 72 79 146 89 165 37 67 357
716 417 845 33 72 78 168 100 215 78 166 112 240 112 244 0 4 22 51 126 274
19 40 34 74 34 76 0 2 23 53 51 113 28 59 60 128 71 153 11 25 74 153 139 286
125 251 172 320 203 295 20 -17 25 -57 36 -296 9 -206 16 -288 45 -510 8 -60
19 -141 24 -180 15 -117 60 -405 75 -485 8 -41 22 -115 31 -165 101 -546 187
-904 285 -1175 222 -619 555 -1136 842 -1309 20 -12 71 -28 114 -37 71 -13 86
-13 159 2 79 16 153 47 230 96 50 32 145 130 177 183 29 46 186 335 275 505
322 613 515 992 1246 2440 219 433 290 565 304 565 16 0 19 -15 29 -130 7 -71
17 -184 23 -250 15 -173 38 -483 56 -770 9 -137 22 -313 30 -390 8 -77 17
-167 20 -200 3 -33 9 -82 14 -110 5 -27 17 -95 27 -150 84 -494 234 -828 520
-1155 324 -371 691 -578 1074 -606 157 -12 384 37 541 116 186 94 498 367 597
523 87 137 74 197 -82 397 -131 166 -183 236 -250 334 -92 134 -211 336 -255
431 -10 22 -32 69 -48 105 -79 168 -154 385 -198 570 -7 30 -18 69 -23 85 -26
80 -81 370 -108 575 -75 561 -89 880 -89 2050 0 726 3 909 14 967 12 64 12 81
-3 160 -19 98 -52 158 -94 174 -88 34 -141 40 -327 39 -475 -1 -718 -52 -1032
-215 -243 -126 -350 -272 -743 -1015 -94 -179 -513 -1021 -635 -1280 -54 -113
-122 -257 -152 -320 -30 -63 -74 -158 -98 -211 -24 -52 -57 -124 -73 -160 -53
-113 -142 -310 -142 -314 0 -1 -18 -41 -39 -87 -21 -45 -59 -128 -83 -183
-105 -235 -110 -245 -129 -245 -13 0 -28 19 -49 60 -100 197 -155 444 -325
1460 -136 811 -189 1085 -275 1415 -173 673 -365 932 -765 1035 -136 34 -427
72 -539 69 -28 -1 -94 -5 -146 -10z" />
                <path d="M23100 13254 c-209 -26 -564 -203 -733 -368 -48 -46 -128 -157 -150
-206 -4 -8 -23 -42 -42 -75 -19 -33 -39 -69 -44 -80 -5 -11 -36 -76 -68 -145
-33 -69 -72 -152 -87 -185 -16 -33 -36 -78 -46 -100 -10 -22 -35 -80 -55 -130
-19 -49 -40 -99 -45 -110 -5 -11 -19 -45 -31 -75 -12 -30 -28 -69 -35 -87 -8
-17 -14 -34 -14 -38 0 -3 -20 -48 -44 -98 -61 -125 -99 -164 -222 -225 -217
-106 -344 -220 -477 -427 -78 -121 -129 -279 -129 -401 -1 -83 2 -97 32 -158
40 -81 116 -153 170 -161 19 -3 53 -11 75 -18 40 -12 40 -12 38 -62 -2 -51 -5
-67 -80 -360 -49 -195 -55 -220 -76 -310 -8 -33 -20 -80 -26 -105 -7 -25 -19
-70 -26 -100 -7 -30 -19 -75 -26 -100 -6 -25 -18 -72 -25 -105 -7 -33 -20 -91
-28 -130 -9 -38 -23 -107 -31 -153 -8 -45 -16 -86 -19 -90 -2 -4 -13 -77 -23
-162 -14 -118 -18 -227 -18 -455 1 -350 8 -402 79 -540 202 -388 456 -583 831
-635 187 -26 464 0 635 60 306 106 566 273 791 507 158 165 206 256 161 301
-15 15 -39 21 -103 27 -139 12 -217 31 -328 82 -167 76 -310 245 -355 419 -19
73 -22 336 -6 509 37 385 80 711 134 995 25 133 74 320 87 334 5 6 9 17 9 26
0 48 107 100 204 100 115 0 292 61 414 143 191 130 313 339 372 640 19 95 -2
157 -77 228 -84 79 -174 114 -363 140 -186 25 -182 22 -153 146 18 74 125 403
153 468 8 20 168 456 229 625 31 88 60 181 79 263 55 224 -88 369 -373 381
-55 2 -116 2 -135 0z" />
                <path d="M26930 11410 c-69 -4 -138 -12 -153 -19 -16 -6 -41 -11 -56 -11 -24
0 -108 -20 -256 -63 -27 -8 -80 -26 -116 -41 -36 -14 -69 -26 -73 -26 -16 0
-259 -121 -352 -175 -423 -249 -807 -624 -1120 -1095 -113 -170 -183 -297
-289 -525 -160 -343 -251 -597 -319 -890 -171 -734 -1 -1315 470 -1605 110
-68 117 -71 234 -114 169 -61 369 -91 554 -83 433 19 884 167 1330 436 455
275 977 690 1136 904 93 125 55 216 -127 298 -84 38 -162 51 -223 37 -60 -15
-236 -106 -412 -216 -293 -182 -433 -259 -573 -317 -227 -93 -254 -100 -405
-100 -114 0 -129 2 -174 25 -56 29 -134 103 -142 136 -15 58 20 71 256 93 230
22 428 114 720 334 229 173 537 481 714 712 257 336 386 620 447 984 18 109
20 154 16 331 -5 223 -16 287 -67 416 -118 300 -254 428 -565 533 -81 27 -246
54 -307 49 -13 0 -79 -4 -148 -8z m-234 -718 c12 -9 26 -32 33 -51 16 -50 14
-415 -4 -616 -20 -213 -36 -307 -82 -465 -94 -326 -319 -771 -512 -1010 -75
-93 -269 -290 -286 -290 -21 0 -31 26 -51 120 -51 255 41 727 251 1285 61 159
79 201 197 455 134 287 285 518 373 571 37 23 54 23 81 1z" />
                <path d="M18775 11370 c-172 -24 -245 -43 -359 -91 -38 -16 -72 -29 -77 -29
-16 0 -385 -178 -414 -200 -5 -4 -46 -27 -90 -50 -216 -116 -526 -358 -684
-533 -40 -45 -97 -107 -125 -137 -152 -162 -327 -446 -418 -680 -94 -240 -120
-362 -121 -565 -1 -125 3 -164 22 -234 39 -149 111 -273 222 -382 153 -152
431 -291 899 -448 52 -18 104 -36 115 -41 11 -5 70 -25 130 -46 220 -75 417
-176 498 -257 83 -82 92 -113 92 -317 0 -153 -3 -184 -23 -246 -34 -111 -147
-273 -272 -391 -145 -139 -390 -214 -465 -143 -46 43 -85 185 -85 309 0 173
31 305 145 616 70 193 64 238 -33 265 -47 13 -195 13 -247 0 -22 -6 -62 -15
-90 -20 -112 -23 -326 -119 -450 -202 -298 -201 -530 -497 -600 -765 -28 -107
-14 -246 36 -372 94 -235 321 -407 645 -491 149 -38 501 -52 759 -29 389 33
632 100 958 266 128 65 361 210 464 289 27 22 79 61 114 88 258 200 569 528
722 762 145 224 179 339 194 651 5 116 -12 272 -36 322 -72 148 -111 200 -210
275 -89 68 -356 186 -536 236 -16 4 -46 14 -65 21 -19 6 -51 17 -70 24 -19 7
-62 20 -95 30 -33 9 -78 23 -100 30 -22 7 -74 22 -115 34 -41 12 -95 28 -120
35 -25 8 -70 21 -100 30 -271 80 -421 149 -516 238 -90 85 -114 139 -114 261
0 109 22 271 51 371 11 39 25 87 30 106 6 19 14 44 19 55 5 11 19 45 32 75 32
78 162 305 209 366 56 73 143 161 228 232 82 68 114 77 147 40 25 -29 81 -145
93 -195 5 -21 20 -72 32 -113 20 -65 23 -97 24 -235 0 -172 -12 -273 -61 -520
-66 -332 -65 -407 6 -467 103 -89 323 -98 500 -21 166 72 283 156 433 308 167
171 284 353 362 565 49 132 61 384 26 515 -57 209 -161 377 -321 520 -103 92
-152 126 -254 179 -123 63 -180 80 -356 106 -74 11 -509 11 -585 0z" />
                <path d="M29675 11370 c-103 -19 -210 -77 -302 -164 -70 -65 -173 -192 -216
-266 -46 -78 -144 -273 -171 -340 -15 -36 -31 -74 -36 -85 -10 -21 -27 -68
-65 -180 -13 -39 -28 -81 -33 -95 -6 -14 -24 -72 -42 -130 -18 -58 -37 -118
-42 -135 -5 -16 -16 -52 -23 -80 -7 -27 -23 -86 -35 -130 -12 -44 -25 -93 -30
-110 -4 -16 -18 -66 -30 -110 -20 -72 -31 -119 -59 -250 -5 -22 -19 -83 -31
-135 -32 -143 -49 -226 -65 -320 -8 -47 -21 -125 -30 -175 -18 -101 -28 -169
-50 -335 -9 -63 -20 -146 -26 -185 -36 -249 -35 -770 1 -960 24 -121 75 -241
131 -309 85 -102 223 -156 397 -156 123 0 204 15 308 58 234 96 570 392 626
552 43 122 68 281 132 855 34 301 46 422 46 455 0 19 6 107 15 195 8 88 22
241 30 340 48 551 89 817 138 888 19 27 20 28 39 10 61 -55 113 -338 148 -798
20 -272 52 -433 97 -481 50 -54 106 -40 186 45 143 155 262 392 332 661 9 36
22 85 30 110 17 60 42 178 55 265 6 39 15 95 19 125 25 158 36 326 35 555 0
212 -3 268 -22 370 -36 199 -70 291 -135 370 -68 83 -232 113 -342 61 -66 -31
-178 -122 -295 -240 -93 -95 -125 -113 -136 -78 -28 87 -103 221 -151 267 -52
50 -139 75 -259 74 -54 -1 -117 -5 -139 -9z" />
                <path d="M14099 11366 c-2 -2 -53 -9 -114 -15 -110 -12 -211 -30 -295 -55 -25
-8 -72 -22 -105 -31 -33 -10 -69 -21 -80 -26 -11 -4 -69 -27 -130 -51 -173
-67 -477 -223 -587 -301 -29 -21 -98 -67 -153 -104 -398 -260 -883 -742 -1167
-1159 -168 -247 -177 -259 -188 -284 -6 -14 -26 -52 -45 -85 -57 -99 -205
-405 -205 -425 0 -5 -6 -24 -14 -42 -8 -18 -21 -52 -30 -75 -9 -24 -22 -60
-30 -80 -18 -46 -63 -206 -83 -288 -46 -198 -62 -328 -63 -521 0 -233 25 -345
120 -529 66 -127 120 -204 219 -308 240 -252 494 -363 841 -368 303 -4 606
112 934 360 216 163 365 299 773 704 226 225 416 406 421 403 12 -7 18 -58 37
-321 38 -511 115 -751 300 -924 70 -65 125 -101 207 -134 46 -18 73 -21 208
-21 128 0 170 4 240 23 328 86 553 207 755 406 59 58 105 112 105 122 0 10
-18 73 -40 138 -75 223 -90 393 -90 1085 -1 643 -15 1190 -33 1263 -24 95 -76
135 -206 156 -80 13 -111 25 -111 44 0 7 15 45 34 84 19 39 51 123 72 185 36
110 37 117 38 268 0 142 -2 162 -27 240 -35 108 -69 166 -147 246 -101 105
-220 183 -392 259 -71 31 -175 69 -208 76 -19 4 -71 17 -115 28 -111 30 -376
61 -521 61 -66 0 -123 -2 -125 -4z m-301 -670 c87 -46 156 -196 187 -408 21
-140 10 -257 -42 -433 -39 -133 -37 -130 -177 -427 -58 -125 -76 -176 -76
-223 0 -64 15 -69 175 -62 130 7 200 14 373 41 99 16 122 13 122 -12 0 -42
-655 -655 -916 -857 -257 -198 -427 -278 -553 -260 -143 20 -271 217 -302 460
-6 50 -13 94 -16 98 -8 13 17 226 38 327 65 310 228 660 478 1025 66 97 195
271 211 285 3 3 28 34 55 70 80 105 250 295 297 331 81 64 99 69 146 45z" />
                <path d="M10055 3693 c-98 -24 -228 -83 -310 -141 -138 -98 -345 -343 -458
-543 -144 -256 -186 -338 -268 -514 -17 -38 -49 -106 -69 -151 -38 -82 -100
-227 -126 -296 -8 -21 -20 -55 -28 -75 -8 -21 -26 -67 -40 -103 -29 -78 -56
-159 -85 -260 -12 -41 -26 -85 -31 -97 -13 -32 -65 -263 -96 -428 -24 -131
-25 -428 0 -510 41 -140 94 -218 172 -256 164 -79 426 93 948 621 125 127 233
229 240 227 7 -2 13 -59 18 -168 14 -337 55 -482 168 -600 70 -74 123 -94 250
-94 114 0 203 22 298 72 26 14 70 37 97 51 28 15 70 46 93 70 41 41 44 46 40
90 -2 26 -21 108 -41 182 -19 74 -41 171 -46 215 -6 44 -15 98 -21 120 -15 62
-12 347 6 485 8 70 16 216 17 331 l2 205 -27 41 c-35 53 -76 67 -178 60 -67
-4 -93 -12 -186 -57 -191 -91 -431 -268 -668 -491 -217 -203 -211 -198 -220
-182 -18 33 92 581 169 843 64 216 120 384 151 458 8 18 14 37 14 43 0 6 6 25
14 42 7 18 23 57 35 87 101 255 224 460 277 460 14 0 15 -7 10 -42 -3 -24 -11
-101 -16 -173 -5 -71 -15 -152 -21 -180 -46 -199 -78 -310 -147 -500 -72 -197
-122 -364 -122 -406 0 -9 7 -22 15 -29 116 -96 733 451 819 725 10 33 25 80
32 104 9 29 14 97 14 196 0 204 -27 292 -121 400 -43 49 -201 141 -274 160
-56 14 -251 20 -300 8z" />
                <path d="M15873 3690 c-70 -15 -165 -66 -215 -115 -140 -138 -266 -422 -503
-1132 -48 -145 -108 -304 -133 -355 -41 -81 -55 -99 -112 -142 -84 -64 -138
-131 -201 -250 -87 -165 -81 -243 28 -358 72 -77 71 -55 17 -233 -59 -199
-116 -439 -121 -516 -7 -98 0 -135 38 -193 64 -95 179 -146 333 -146 154 0
289 54 392 155 101 99 154 218 284 640 50 160 97 305 105 323 l15 32 307 0
c271 0 438 -8 510 -25 46 -11 40 -52 -47 -335 -110 -354 -137 -491 -119 -597
20 -117 110 -193 226 -193 57 0 183 28 222 49 11 6 27 11 37 11 9 0 63 22 118
50 117 57 199 130 259 231 21 35 42 71 47 79 22 35 66 137 137 315 129 325
159 371 286 446 158 93 268 200 334 324 31 58 37 80 38 132 0 51 -4 66 -23 86
-26 27 -130 81 -178 91 -18 4 -40 16 -50 27 -22 24 -15 55 51 224 182 470 304
971 276 1140 -14 86 -24 108 -68 141 -89 68 -179 96 -307 95 -328 -1 -494
-244 -796 -1166 -98 -298 -139 -417 -145 -423 -13 -14 -135 -21 -441 -28 -331
-7 -417 -2 -435 28 -10 15 11 88 141 493 205 642 231 760 195 883 -21 68 -85
132 -182 178 -68 33 -84 37 -176 40 -56 2 -121 -1 -144 -6z" />
                <path d="M6989 3636 c-119 -21 -200 -65 -295 -160 -97 -98 -155 -175 -197
-264 -28 -58 -32 -78 -32 -147 0 -96 19 -130 93 -167 45 -22 55 -23 287 -22
132 0 293 6 358 13 129 15 154 9 141 -33 -6 -19 -122 -302 -144 -351 -17 -37
-78 -189 -113 -280 -20 -49 -47 -119 -60 -155 -112 -287 -264 -774 -336 -1073
-58 -243 -66 -293 -64 -403 1 -91 4 -108 31 -166 54 -113 113 -148 246 -148
105 0 176 20 306 88 190 99 282 175 338 280 70 131 159 443 382 1332 142 566
184 755 195 869 9 92 23 113 87 133 29 10 76 22 104 27 195 38 291 135 301
306 5 73 3 88 -20 138 -67 148 -221 171 -1272 191 -194 4 -279 2 -336 -8z" />
                <path d="M23790 2755 c-176 -20 -240 -37 -420 -112 -89 -37 -112 -49 -212
-109 -191 -115 -421 -324 -541 -490 -23 -33 -56 -79 -74 -104 -31 -44 -159
-294 -181 -355 -42 -116 -72 -281 -72 -395 0 -151 42 -346 92 -433 15 -26 28
-52 28 -57 0 -18 134 -141 201 -185 56 -37 131 -76 244 -125 29 -13 148 -45
237 -65 64 -14 114 -16 305 -12 136 3 246 10 273 17 25 7 77 21 115 32 167 46
318 118 478 226 58 39 213 188 263 253 115 150 197 336 237 544 31 156 42 351
29 498 -9 97 -15 116 -55 200 -96 194 -300 357 -445 357 -109 -1 -441 -121
-539 -196 -71 -54 -65 -75 46 -198 116 -127 242 -376 277 -543 18 -90 7 -217
-32 -352 -81 -283 -328 -471 -534 -407 -69 22 -101 41 -166 100 -139 126 -191
329 -159 628 42 397 208 715 480 918 135 102 203 132 435 196 88 24 144 46
163 62 25 22 22 68 -5 86 -57 36 -249 45 -468 21z" />
                <path d="M12360 2670 c-36 -10 -90 -28 -120 -40 -30 -12 -68 -26 -85 -32 -67
-25 -237 -132 -335 -212 -82 -67 -259 -245 -313 -316 -206 -272 -332 -535
-406 -845 -27 -117 -36 -191 -34 -300 2 -104 6 -131 31 -202 67 -186 206 -330
377 -391 95 -34 237 -47 353 -32 99 12 233 43 264 60 10 6 24 10 31 10 7 0 78
32 158 72 147 73 350 203 449 287 30 26 94 80 143 120 94 79 157 155 157 191
0 38 -63 86 -123 93 -92 11 -188 -26 -408 -159 -30 -18 -91 -50 -135 -69 -43
-20 -86 -40 -95 -45 -8 -4 -52 -15 -98 -25 -76 -15 -84 -15 -126 0 -50 20 -71
39 -80 76 -9 34 4 42 68 40 152 -3 377 130 613 364 231 229 334 395 399 645
23 88 25 277 3 345 -45 145 -156 288 -258 333 -127 56 -298 69 -430 32z m56
-395 c12 -31 12 -51 -2 -172 -9 -76 -17 -140 -19 -144 -2 -3 -9 -37 -15 -75
-6 -38 -21 -100 -34 -139 -13 -38 -31 -95 -40 -125 -23 -74 -110 -251 -159
-324 -22 -32 -73 -97 -115 -143 -69 -78 -77 -84 -89 -67 -23 31 -13 260 16
379 39 156 111 376 155 470 8 17 29 62 47 100 112 238 215 335 255 240z" />
                <path d="M19745 2672 c-115 -26 -146 -38 -280 -103 -208 -101 -449 -304 -600
-504 -72 -97 -185 -265 -185 -277 0 -5 -11 -26 -24 -46 -56 -90 -137 -303
-184 -487 -32 -129 -35 -152 -36 -295 -1 -191 22 -286 97 -400 113 -170 366
-288 589 -274 86 5 100 8 233 45 107 29 362 141 435 190 14 9 59 38 100 65 41
27 80 52 85 56 6 5 57 43 115 86 58 42 151 122 208 178 95 94 102 104 102 140
0 33 -5 43 -33 62 -46 31 -176 32 -245 1 -73 -32 -114 -52 -157 -78 -22 -13
-103 -55 -180 -93 -77 -38 -147 -73 -156 -78 -33 -17 -139 -32 -181 -26 -81
12 -133 63 -95 94 6 5 35 12 62 14 150 14 388 164 608 382 175 175 291 342
336 486 13 41 27 80 32 85 4 6 12 51 19 100 6 50 14 108 17 130 7 56 -22 263
-43 311 -19 41 -68 110 -94 132 -35 29 -142 84 -192 98 -86 24 -259 27 -353 6z
m26 -383 c28 -53 -12 -393 -66 -564 -7 -22 -20 -65 -30 -95 -9 -30 -31 -84
-47 -120 -17 -36 -36 -79 -44 -95 -37 -80 -252 -335 -282 -335 -21 0 -25 108
-7 227 20 141 68 333 96 385 5 10 9 22 9 28 0 13 68 184 104 262 14 31 26 59
26 62 0 18 134 228 156 245 34 27 70 27 85 0z" />
                <path d="M21315 2683 c-53 -13 -144 -66 -182 -105 -53 -55 -110 -145 -162
-255 -23 -48 -46 -96 -52 -105 -5 -10 -9 -23 -9 -30 -1 -7 -9 -31 -20 -53 -11
-22 -19 -48 -20 -57 0 -9 -4 -19 -9 -23 -5 -3 -12 -20 -16 -38 -4 -17 -12 -50
-19 -72 -115 -355 -183 -768 -193 -1182 -4 -188 -3 -231 12 -290 26 -105 45
-135 106 -172 28 -17 51 -21 127 -21 98 0 105 2 261 78 59 29 179 135 211 187
27 43 47 112 59 205 49 357 61 462 61 504 0 22 7 96 15 165 19 171 35 310 46
408 5 46 15 99 24 118 12 31 17 35 34 26 11 -6 22 -19 25 -28 10 -31 26 -153
41 -298 18 -181 39 -286 60 -301 66 -49 207 156 268 391 40 151 51 266 52 505
l0 235 -28 56 c-30 62 -101 135 -141 145 -47 11 -79 -7 -164 -92 -46 -46 -87
-84 -90 -84 -4 0 -39 32 -77 71 -94 95 -157 127 -220 112z" />
        </g>
</svg>