<?xml version="1.0" encoding="iso-8859-1"?>
<svg version="1.1" id="padlock" height="100%" width="100%" xmlns="http://www.w3.org/2000/svg" xmlns:xlink="http://www.w3.org/1999/xlink" x="0px" y="0px"
	viewBox="0 0 491.602 491.602" xml:space="preserve">
	<path d="M416.951,220.5c-1.4-0.3-2.6-0.7-4.3-0.9c-1.6-0.3-3.6-0.5-4.1-0.4l-1.2-0.1h-2.1h-2.4h-9.7l-19.4,0.1h-4.1
			c9.1-20.8,13.3-45.5,14.4-70.5l0.3-6l0.1-1.5v-0.4v-1.1v-0.8v-3v-6c0.1-1.9-0.1-4.2-0.4-6.6c-0.8-9.6-2.5-18.4-5-27.1
			c-5.1-17.4-13.8-33.9-25.5-48.1s-26.5-26-43.1-34.2s-35.1-12.8-53.5-13.1l-6.8-0.6l-1.7-0.2h-0.4h-0.1h-1h-0.2h-0.7h-3h-6
			c-1,0-1.9,0-3.1,0.1l-3.7,0.4c-3.8,0.5-7.8,0.9-11.6,1.5l-10.7,2.5c-3.6,0.8-7,2.2-10.5,3.3l-5.2,1.8l-5,2.3
			c-6.8,2.9-13,6.7-19.3,10.6c-5.9,4.3-11.9,8.6-17.1,13.8c-10.6,10.1-19.9,21.7-26.4,34.8c-6.6,13-11.1,27-13.2,41.2
			c-0.8,8.1-0.5,15.7,1.9,20.9c2.2,5.2,5.5,8,10,7.5c8.5-1.2,14.3-10.4,17.8-22.8c3.3-11.3,8.6-21.9,15-31.5s14.1-18.3,22.7-25.7
			c1.6-1.7,3.5-3,5.3-4.4c1.9-1.4,3.6-2.9,5.5-4.1c3.9-2.4,7.7-5.1,11.9-7.1c8.1-4.5,17.1-7.4,25.9-9.7c4.4-0.7,8-2,13.8-2.2
			l7.2-0.6l7.1,0.1h3.5l3.5,0.4l7.1,0.8c2.3,0.4,4.6,1,6.9,1.5s4.7,1,6.9,1.8c15.1,8.3,28.4,18.6,39,31.1s18.7,26.8,23.6,42.2
			l1.5,5.9c0.5,1.9,1.1,4,1.3,5.7c0.5,3.8,1.4,6.6,1.5,12l0.4,7.2l0.1,6.3l0.1,14.5c0.1,19.2,0.1,38.3-0.5,57.4l-15.2,0.1l-77.8,0.9
			l-155.5,2.2l-8.7-0.5l-2.2-0.1c-0.8,0-1.2-0.1-2.6-0.1c-2.3,0-4.6,0.2-6.9,0.6c-9.2,1.6-17.7,6.9-23.4,14.5
			c-2.9,3.8-5,8.2-6.3,12.8c-0.3,1.1-0.6,2.5-0.9,3.9l-0.3,2.1l-0.1,1.1l-0.1,1.1l-0.2,1.8l-0.1,2.2l-0.7,17.5
			c-0.9,23.4-1.6,46.8-2.1,70.2c-0.5,23.4-0.9,46.9-1.1,70.5l-0.2,17.6l-0.1,8.8v1.1l0.1,1.8c0.1,1.3,0.1,2.7,0.3,4
			c0.3,2.7,0.9,5.4,1.8,7.9c3.4,10.4,10.7,19.3,20.3,24.5c2.4,1.3,4.9,2.4,7.5,3.2c1.3,0.4,2.6,0.7,3.9,1.1c1.3,0.3,3.2,0.6,4.8,0.8
			l1.2,0.1h0.6l1.1,0.1l2.1,0.1h1.1h4.4c94.3,0.1,188.8-1,282.8,0.2c8.4,0.1,21.5-3.4,25.6-5.8c8.2-4.9-2.5-9-18.4-12.1
			c-52.5-10.3-116.2-14.8-181.1-16c-38.7-0.8-77.5-1.6-116.2-2.4c-0.4-0.2,0.2,0-0.4-0.2c-0.4-0.1-0.7-0.3-1-0.4
			c-0.7-0.3-1.3-0.8-1.8-1.3c-1.1-1-1.8-2.4-2-3.8c-0.1-0.3-0.1-0.7-0.1-1c0-0.2,0-0.4,0-0.5v-1.8l0.1-7.3l0.3-14.6l0.9-58.6
			c0.2-19.5,0.4-39.1,0.6-58.6l0.2-29.3c0.1-8.8-0.1-23.5,0.5-20.6c0.4-0.8,1.1-1.6,1.9-2c0.4-0.2,0.8-0.3,1.3-0.5
			c0.2-0.1,0.5-0.1,0.7-0.1c-0.1,0,0.9,0,1.4,0h1.8l29.4-0.2c19.6-0.3,39.2-0.6,58.8-0.9c19.4,0.4,38.8,0.7,58.3,1.1l92.4,1
			l46.2,0.2h23.1h5.3h0.2h0.7c0.4,0,1.3,0,0.8,0.1c-0.3,0.1-0.7-0.1-0.4,0c0.5,0.1,1,0.3,1.4,0.7c0.5,0.4,0.8,0.8,1,1.3
			c0.1,0.2,0.1,0.5,0.2,0.8c0,0.1,0,0.2,0,0.2c0,0.1,0,0,0,0.7v2.9l0.2,23.1l0.6,46.1c0.5,30.7,1.2,61.4,2.3,92
			c0.1,4.4,0.3,8.6,0.6,12.7c0.1,2.1,0.3,4.1,0.4,6.1c0.1,1,0.2,2,0.2,2.9l0.1,1.4l0.1,0.7v0.4v0.1l0,0c0,0.7,0-0.9,0-0.8l0,0v0.2
			l0.1,1.4v0.7c0,0.2,0,0.1,0,0.1s0.2,0,0.2,0.4c0.1,0.7,0,1.4,0,2.1c-0.2,1.4-0.6,2.8-1.2,4.1c-2.3,5.5-8,8.4-7,13.1
			c0.5,2,2.6,4.1,6.6,4.9s10.1,0.1,16.2-4.3c3-2.2,6-5.3,8.2-9.4c1.1-2.1,2-4.1,2.7-7l0.5-2.2l0.3-1.5l0.1-0.7l0.1-0.3v-0.2l0,0l0,0
			v-0.6V448l0.2-1.4c0.8-7.4,1.4-15.6,1.6-24.6c0.8-32.1,1.6-64.4,2.4-96.7l0.8-48.4l0.1-12.1v-6.3c-0.1-3.4-0.5-6.9-1.4-10.2
			C441.251,235,430.351,224,416.951,220.5z" />
	<path d="M265.351,357c-0.1,1.4-0.5,3.7-1,5.5c-1.3,1.6-2.9,2.8-4.4,3.9c-4.9,3.5-10.8,4.4-16.2,3.2c-5.3-1.1-10.6-4.2-14.7-9.7
			c-1.2-1.5-2.9-3-5.4-4.2s-6-2.4-10.5-2.2c-4.1,0.2-7.7,1.6-10.2,4.6c-2.3,2.9-3.5,7.3-2.3,12.1c2,8.5,6.5,16.7,13.1,23.1
			s15,11.1,24.5,12.6c14.4,2.5,30.4-2,41.2-11.6c11.1-9.5,17.5-23.4,17.7-37.8c-0.7,0.5-1.5,0.8-2.2,1.2c0.7-0.6,1.5-1,2.2-1.2
			c1.8-5.7,2.3-12.8,1.1-19.4c-1.2-6.7-3.9-13.3-8-19s-9.4-10.6-15.7-14.3c-1.6-0.9-3.2-1.7-4.8-2.5c-1.7-0.7-3.4-1.3-5-2
			c-1.7-0.5-3.5-1-5.2-1.4c-1.9-0.4-4.2-0.7-6.2-1l-0.8-0.1h-0.5h-0.9l-1.8-0.1h-0.4h-0.2h-1.2h-0.2l-1.3,0.1l-2.7,0.1
			c-3.6,0.3-7.2,0.9-10.7,1.9c-7,2-13.5,5.3-19.2,9.7c-5.7,4.4-10.5,9.8-14.3,16c-1.9,3.1-3.5,6.3-4.8,9.7c-0.7,1.7-1.2,3.4-1.7,5.1
			l-0.7,2.6l-0.6,3.1c-0.7,3.8,2.9,5.8,5.2,6.9c4.8,1.9,9,0,12.4-3.1c11.7-10,20.7-13.2,28.2-16c2.3-0.8,4.7-1.1,7-1.1
			c0.6,0,1.1,0,1.7,0.1l0.9,0.1h0.4h0.2h0.1h0.1l0,0l0,0c-0.3,0,0.8,0-0.8,0c1.9,0.3,4.3,0.6,4.4,1c0.4,0.2,1.8,0.8,2.6,1.2
			c0.9,0.5,1.8,1.1,2.7,1.7c1.7,1.3,3.1,2.7,4.3,4.3c2.3,3.3,3.8,6.8,4.3,10.5c0.1,0.5,0.2,0.9,0.2,1.4l0.1,0.7v0.4l0,0l0,0
			l-0.1,2.6C265.351,356.7,265.351,356.7,265.351,357z M265.451,352.6L265.451,352.6C265.451,352.4,265.451,352.3,265.451,352.6z" />
</svg>