<?xml version="1.0" encoding="utf-8"?>
<svg version="1.1" id="salary" height="100%" width="100%" xmlns="http://www.w3.org/2000/svg" xmlns:xlink="http://www.w3.org/1999/xlink" x="0px" y="0px" viewBox="0 0 32 32" style="enable-background:new 0 0 32 32;" xml:space="preserve">
	<path d="M26,19.9c-0.1-0.5-0.4-0.8-0.9-0.9c-0.2,0-5-0.5-7.8,2.3c-0.1,0.1-0.2,0.2-0.3,0.3v-3.7c3.9-0.5,7-3.9,7-7.9
	c0-4.4-3.6-8-8-8s-8,3.6-8,8c0,4.1,3.1,7.4,7,7.9v3.7c-0.1-0.1-0.2-0.2-0.3-0.3C11.9,18.5,7.1,19,6.9,19c-0.5,0.1-0.8,0.4-0.9,0.9
	c0,0.2-0.5,5,2.3,7.8c2,2,5.2,2.3,6.8,2.3c0.4,0,0.8,0,0.9,0c0.2,0,0.5,0,0.9,0c1.6,0,4.7-0.3,6.8-2.3C26.5,24.9,26,20.1,26,19.9z
	 M14,13c0-0.6,0.4-1,1-1h1.5c0.3,0,0.5-0.2,0.5-0.5S16.8,11,16.5,11h-1C14.1,11,13,9.9,13,8.5c0-1.2,0.9-2.2,2-2.4V6
	c0-0.6,0.4-1,1-1s1,0.4,1,1c0.6,0,1,0.4,1,1s-0.4,1-1,1h-1.5C15.2,8,15,8.2,15,8.5S15.2,9,15.5,9h1c1.4,0,2.5,1.1,2.5,2.5
	c0,1.2-0.9,2.2-2,2.4V14c0,0.6-0.4,1-1,1s-1-0.4-1-1C14.4,14,14,13.6,14,13z" />
</svg>