<?xml version="1.0" encoding="iso-8859-1"?>
<svg id="school-college" width="100%" height="100%" version="1.1" xmlns="http://www.w3.org/2000/svg"
	xmlns:xlink="http://www.w3.org/1999/xlink"
	viewBox="0 0 512 512" xml:space="preserve">
	<rect x="264.533" y="247.467" width="17.067" height="85.333"/>
	<rect x="85.333" y="247.467" width="17.067" height="85.333"/>
	<rect x="230.4" y="247.467" width="17.067" height="85.333"/>
	<rect x="119.467" y="247.467" width="17.067" height="85.333"/>
	<rect x="238.933" y="384" width="34.133" height="85.333"/>
	<rect x="85.333" y="384" width="51.2" height="34.133"/>
	<rect x="375.467" y="247.467" width="17.067" height="85.333"/>
	<rect x="409.6" y="247.467" width="17.067" height="85.333"/>
	<path d="M503.467,452.267h-8.533V204.8c0-5.12-3.413-8.533-8.533-8.533h-17.067v-25.6c0-5.12-3.413-8.533-8.533-8.533h-42.667
		v-51.2h59.733c5.12,0,8.533-3.413,8.533-8.533V68.267c0-5.12-3.413-8.533-8.533-8.533h-59.733V51.2
		c0-5.12-3.413-8.533-8.533-8.533s-8.533,3.413-8.533,8.533v17.067V102.4v59.733H358.4c-5.12,0-8.533,3.413-8.533,8.533v25.6H332.8
		v-25.6c0-1.707-0.853-3.413-1.707-5.12l-66.56-82.773V68.267c0-5.12-3.413-8.533-8.533-8.533s-8.533,3.413-8.533,8.533V81.92
		l-66.56,82.773c-0.853,2.56-1.707,4.267-1.707,5.973v25.6h-17.067v-25.6c0-5.12-3.413-8.533-8.533-8.533h-42.667v-51.2h59.733
		c5.12,0,8.533-3.413,8.533-8.533V68.267c0-5.12-3.413-8.533-8.533-8.533h-59.733V51.2c0-5.12-3.413-8.533-8.533-8.533
		s-8.533,3.413-8.533,8.533v17.067V102.4v59.733H51.2c-5.12,0-8.533,3.413-8.533,8.533v25.6H25.6c-5.12,0-8.533,3.413-8.533,8.533
		v247.467H8.533C3.413,452.267,0,455.68,0,460.8c0,5.12,3.413,8.533,8.533,8.533H25.6h196.267v-93.867
		c0-5.12,3.413-8.533,8.533-8.533h51.2c5.12,0,8.533,3.413,8.533,8.533v93.867H486.4h17.067c5.12,0,8.533-3.413,8.533-8.533
		C512,455.68,508.587,452.267,503.467,452.267z M59.733,179.2h85.333v17.067H59.733V179.2z M153.6,426.667
		c0,5.12-3.413,8.533-8.533,8.533H76.8c-5.12,0-8.533-3.413-8.533-8.533v-51.2c0-5.12,3.413-8.533,8.533-8.533h68.267
		c5.12,0,8.533,3.413,8.533,8.533V426.667z M162.133,349.867h-17.067H76.8H59.733c-5.12,0-8.533-3.413-8.533-8.533
		c0-5.12,3.413-8.533,8.533-8.533h8.533v-93.867c0-5.12,3.413-8.533,8.533-8.533h68.267c5.12,0,8.533,3.413,8.533,8.533V332.8
		h8.533c5.12,0,8.533,3.413,8.533,8.533C170.667,346.453,167.253,349.867,162.133,349.867z M307.2,349.867h-17.067h-68.267H204.8
		c-5.12,0-8.533-3.413-8.533-8.533c0-5.12,3.413-8.533,8.533-8.533h8.533v-93.867c0-5.12,3.413-8.533,8.533-8.533h68.267
		c5.12,0,8.533,3.413,8.533,8.533V332.8h8.533c5.12,0,8.533,3.413,8.533,8.533C315.733,346.453,312.32,349.867,307.2,349.867z
			M315.733,196.267H196.267V174.08L256,98.987l59.733,75.093V196.267z M366.933,179.2h85.333v17.067h-85.333V179.2z
			M443.733,426.667c0,5.12-3.413,8.533-8.533,8.533h-68.267c-5.12,0-8.533-3.413-8.533-8.533v-51.2c0-5.12,3.413-8.533,8.533-8.533
		H435.2c5.12,0,8.533,3.413,8.533,8.533V426.667z M452.267,349.867H435.2h-68.267h-17.067c-5.12,0-8.533-3.413-8.533-8.533
		c0-5.12,3.413-8.533,8.533-8.533h8.533v-93.867c0-5.12,3.413-8.533,8.533-8.533H435.2c5.12,0,8.533,3.413,8.533,8.533V332.8h8.533
		c5.12,0,8.533,3.413,8.533,8.533C460.8,346.453,457.387,349.867,452.267,349.867z"/>
	<rect x="375.467" y="384" width="51.2" height="34.133"/>
</svg>