<?xml version="1.0" encoding="iso-8859-1"?>
<svg version="1.1" id="scooter" xmlns="http://www.w3.org/2000/svg" xmlns:xlink="http://www.w3.org/1999/xlink" x="0px" y="0px" width="100%" height="100%" viewBox="0 0 426.863 426.863" style="enable-background:new 0 0 426.863 426.863;" xml:space="preserve">
	<path d="M278.886,67.045c0.012-0.518,0.039-1.032,0.039-1.552c0-2.024-0.105-4.022-0.286-6l52.907-8.563
		c9.144-1.479,15.355-10.092,13.877-19.236c-1.48-9.144-10.09-15.357-19.236-13.876l-59.496,9.629
		C254.798,10.848,235.363,0,213.432,0c-21.931,0-41.365,10.848-53.258,27.446l-59.496-9.629
		c-9.142-1.479-17.756,4.731-19.237,13.876c-1.479,9.144,4.734,17.757,13.878,19.236l52.906,8.563c-0.18,1.978-0.286,3.976-0.286,6
		c0,0.519,0.027,1.031,0.039,1.546c-17.563,3.452-33.655,12.642-45.572,26.388c-15.383,17.741-22.307,41.284-18.98,64.528
		l16.613,116.185c3.535,24.699,17.986,45.457,38.044,57.686c0.296,6.872,2.481,13.628,6.488,19.461
		c6.577,9.576,17.23,15.488,28.763,16.076v-18.03c0-10.755,4.266-16.385,11.182-19.341v67.955c0,15.973,12.946,28.918,28.917,28.918
		c15.971,0,28.918-12.945,28.918-28.918v-67.952c6.917,2.955,11.182,8.585,11.182,19.34v18.03
		c11.532-0.588,22.186-6.5,28.764-16.076c4.006-5.832,6.191-12.59,6.487-19.46c20.059-12.231,34.508-32.987,38.045-57.688
		l16.611-116.184c3.326-23.244-3.599-46.789-18.979-64.529C312.54,79.681,296.447,70.496,278.886,67.045z M213.432,97.443
		c-17.616,0-31.948-14.333-31.948-31.949c0-17.617,14.332-31.949,31.948-31.949s31.949,14.332,31.949,31.949
		C245.381,83.11,231.048,97.443,213.432,97.443z M282.833,153.361h-29.247c-6.18,0-11.188-5.009-11.188-11.188
		c0-6.178,5.008-11.188,11.188-11.188h29.247c6.18,0,11.188,5.009,11.188,11.188C294.021,148.352,289.013,153.361,282.833,153.361z" />
</svg>