<?xml version="1.0" encoding="iso-8859-1"?>
<svg version="1.1" id="switch-off" height="100%" width="100%" xmlns="http://www.w3.org/2000/svg" xmlns:xlink="http://www.w3.org/1999/xlink" x="0px" y="0px"
	viewBox="0 0 486.559 486.559" style="enable-background:new 0 0 486.559 486.559;" xml:space="preserve">
	<path id="XMLID_92_" d="M358.025,114.745H209.637c19.053,12.08,35.243,28.223,47.338,47.275h101.051
		c44.798,0,81.256,36.459,81.256,81.26c0,44.797-36.458,81.256-81.256,81.256H256.975c-12.095,19.053-28.285,35.195-47.338,47.277
		h148.389c70.868,0,128.533-57.666,128.533-128.533C486.559,172.409,428.894,114.745,358.025,114.745z" />
	<path id="XMLID_93_" d="M257.068,243.28c0-70.871-57.666-128.535-128.533-128.535C57.665,114.745,0,172.409,0,243.28
		c0,70.867,57.665,128.533,128.535,128.533C199.402,371.813,257.068,314.147,257.068,243.28z M128.535,324.536
		c-44.8,0-81.259-36.459-81.259-81.256c0-44.801,36.459-81.26,81.259-81.26c44.798,0,81.256,36.459,81.256,81.26
		C209.791,288.077,173.333,324.536,128.535,324.536z" />
</svg>