<?xml version="1.0" encoding="iso-8859-1"?>
<svg version="1.1" id="unchecked-round" width="100%" height="100%" xmlns="http://www.w3.org/2000/svg" xmlns:xlink="http://www.w3.org/1999/xlink" x="0px" y="0px" viewBox="0 0 487.4 487.4" style="enable-background:new 0 0 487.4 487.4;" xml:space="preserve">
	<g>
		<path d="M166.237,435.1c-2-0.8-3.9-1.8-5.8-2.7l-11.6-5.5c-14.9-8.4-29.5-17.6-42.1-29.3c-6.7-5.4-12.4-11.9-18.3-18.1
			c-3.1-3-5.4-6.7-8.2-10c-2.6-3.5-5.5-6.6-7.8-10.3c-4.5-7.3-9.7-14.3-13.3-22.2c-1.9-3.9-4.1-7.6-5.9-11.6l-4.7-12
			c-14.7-36.6-16.6-70.8-26.4-67.8c-4.1,1.4-7.3,9.8-9.2,23.9c-0.2,7-0.3,15.4,0.6,24.9c0.8,4.7,1.7,9.7,2.7,14.9
			c0.6,2.6,1,5.3,1.8,8c0.9,2.6,1.8,5.3,2.7,8.1c6.1,20,16.1,38.5,27.1,56.3c6.2,8.5,11.9,17.3,19.2,25l5.2,5.9c1.7,2,3.5,4,5.4,5.7
			l11.5,10.8c16,13.6,33.4,26.1,52.7,34.9c9.3,5.1,19.5,8.3,29.4,12c5,1.8,10.2,2.8,15.3,4.2c5.2,1.3,10.1,2.8,15.7,3.4l13.1,1.9
			l6.5,0.9l5.9,0.3l11.9,0.5l3,0.1l1.5,0.1h0.7h0.9h0.1h0.2h0.4l6.4-0.3c8.5-0.6,17-0.5,25.4-2.2c8.4-1.4,16.8-2.4,25-4.9
			c32.9-8.3,63.9-23.7,90.4-44.7c26.4-21,48.6-47.4,63.9-77.4l5.4-11.4c1.7-3.8,3.7-7.5,5-11.6l4.2-11.9l2.1-5.9
			c0.6-2,1-4.1,1.6-6.1l3-12.2c0.5-2.1,1.1-4,1.4-6.2l0.9-6.4c1.1-8.5,2.7-17.3,2.7-25c3.4-29.4,1.1-60.6-7.4-89.9
			c-8.4-29.5-22.9-57.4-42.3-81.6s-43.6-44.7-71-59.8l-21.1-10.3c-7.3-2.8-14.7-5.5-22-8.2c-7.5-2.2-15.1-4-22.7-6
			c-7.8-1.6-16.1-2.6-24.1-3.8l-3-0.4l-2.7-0.2l-5.4-0.3l-10.8-0.5l-2.7-0.1l-1.3-0.1h-1.4h-0.4h-0.7l-5.9,0.3l-12,0.3l-5.9,0.3
			c-1.9,0.2-3.9,0.6-5.8,0.8l-11.6,1.9c-7.8,0.9-15.3,3.3-22.9,5.2c-30.2,8.3-58.8,22.6-83.6,41.7c-24.9,19-46,42.8-62.1,69.6
			c-2,3.4-4.2,6.6-5.9,10.1l-5.1,10.5c-1.6,3.5-3.5,7-5,10.6l-4.1,11c-1.3,3.7-2.8,7.3-4,11l-3,11.3l-3,11.4l-2,12.1
			c-2.5,12.2,0.9,27.7,2.9,33c4.5,10.2,8.9-2.5,13.5-21.8c8.8-31.8,23.7-63.8,45.3-92.6c2.5-3.7,5.8-6.9,8.6-10.4l4.4-5.2l2.2-2.6
			l2.4-2.4c3.2-3.2,6.5-6.4,9.7-9.7l2.4-2.4l2.7-2.2l5.3-4.4c6.8-6.2,14.6-11.2,22.2-16.6c3.7-2.8,8-4.7,11.9-7.1
			c4-2.3,7.9-4.9,12.2-6.6c19.9-10.3,41.7-16.4,63.7-19.6c5.5-0.6,11-1.8,16.6-1.7l8.3-0.3l4.2-0.1l2.1-0.1h1h0.5h0.2l17.4,1.2
			l4.5,0.3c1.5,0.1,2.7,0.4,4,0.6l7.9,1.4l7.9,1.3c2.6,0.5,5.3,1.4,8,2.1l8,2.2c2.7,0.7,5.3,1.4,7.9,2.5l15.4,5.9
			c5,2.4,9.9,4.9,14.8,7.4c19.4,10.5,37.1,23.9,52.4,39.6c15.3,15.8,27.7,34.2,37.4,53.8l3.5,7.4l1.8,3.7l1.4,3.9l5.6,15.4l4,15.9
			c0.3,1.3,0.7,2.6,1,4l0.6,4.1l1.2,8.1l1.3,8.1l0.4,8.2l0.4,8.2l0.2,4.1v0.4v0.9l-0.1,2.2l-0.8,17.9c-0.6,5.5-1.6,10.4-2.2,15.7
			c-3.7,21.1-10.6,42.6-20.6,62.2c-11,18.9-24.7,36.1-40.6,51c-50.2,47.6-124.6,66.6-191.1,49.8l-12.4-3.2l-12.1-4.4L166.237,435.1z
			" />
	</g>
</svg>