<?xml version="1.0" standalone="no"?>
<!DOCTYPE svg PUBLIC "-//W3C//DTD SVG 20010904//EN" "http://www.w3.org/TR/2001/REC-SVG-20010904/DTD/svg10.dtd">
<svg id="vishu" version="1.0" xmlns="http://www.w3.org/2000/svg"
    width="100%" height="100%" viewBox="0 0 413.000000 531.000000"
    preserveAspectRatio="xMidYMid meet">

    <g transform="translate(0.000000,531.000000) scale(0.100000,-0.100000)" stroke="none">
        <path
            d="M1962 5018 c-30 -10 -66 -20 -82 -21 -16 -2 -36 -10 -46 -18 -20 -17
-99 -64 -139 -82 -16 -8 -61 -37 -100 -65 -110 -81 -118 -87 -149 -102 -75
-39 -148 -137 -171 -232 -2 -9 -8 -25 -14 -36 -35 -65 -47 -330 -22 -478 7
-39 14 -95 16 -125 2 -30 6 -84 10 -121 7 -65 7 -68 -14 -68 -19 0 -20 -3 -10
-22 6 -13 24 -36 39 -53 15 -16 31 -41 35 -53 7 -24 7 -24 -13 -5 -64 59 -99
83 -119 83 -5 0 -7 -16 -5 -35 3 -21 10 -35 18 -35 11 0 14 -14 13 -57 -2 -41
-4 -49 -8 -28 -4 25 -6 21 -11 -25 -6 -51 -7 -53 -17 -30 -12 25 -12 25 -12
-8 -1 -20 5 -35 14 -38 8 -4 15 -17 15 -31 0 -15 -4 -22 -11 -17 -23 14 17
-202 43 -234 10 -11 14 -9 25 12 14 27 37 34 48 15 4 -5 0 -18 -9 -28 -19 -21
-22 -56 -3 -44 15 10 53 16 44 7 -3 -4 0 -16 8 -28 20 -27 19 -65 -2 -73 -14
-5 -13 -8 5 -14 16 -6 22 -17 22 -41 1 -18 7 -44 15 -58 8 -14 14 -50 15 -81
0 -43 4 -58 16 -63 13 -5 14 -9 5 -20 -14 -17 -4 -69 13 -63 15 5 34 -73 39
-168 2 -44 2 -60 0 -36 l-4 43 -25 -33 c-14 -19 -31 -48 -39 -66 -20 -47 -63
-90 -96 -97 -72 -14 -371 -159 -395 -191 -6 -8 -19 -15 -28 -15 -10 0 -14 -4
-11 -10 3 -5 0 -7 -7 -5 -7 3 -34 -8 -59 -24 -26 -16 -56 -32 -68 -36 -36 -11
-104 -52 -94 -57 4 -3 2 -3 -6 -1 -18 4 -112 -38 -105 -48 2 -4 -1 -11 -7 -15
-8 -4 -9 -3 -5 4 9 15 -9 15 -35 1 -11 -5 -16 -15 -13 -21 5 -7 2 -8 -5 -4
-19 12 -72 -14 -82 -41 -4 -12 -13 -23 -19 -23 -6 0 -8 5 -5 10 3 6 2 10 -3
10 -6 0 -13 -7 -16 -16 -4 -9 -9 -14 -12 -11 -6 6 -47 -15 -179 -88 -44 -25
-95 -52 -112 -62 l-33 -17 0 -793 0 -793 2065 0 2065 0 0 718 0 718 -65 43
c-35 23 -69 40 -75 36 -5 -3 -13 1 -16 9 -8 21 -71 59 -84 51 -6 -4 -9 -2 -8
3 2 6 -49 43 -112 82 -63 40 -151 96 -195 125 -159 104 -408 244 -438 245 -4
0 -2 -10 4 -22 7 -13 -20 12 -60 54 -66 70 -81 80 -159 110 -80 32 -87 36 -94
68 -12 47 -67 160 -79 160 -5 0 -7 17 -4 38 7 49 34 122 46 122 5 0 9 8 9 18
0 9 15 46 34 82 27 53 51 140 46 165 -3 16 46 85 61 85 21 0 36 20 22 29 -24
15 -25 53 -2 77 17 19 20 26 10 38 -8 10 -9 16 -1 21 5 3 11 4 11 1 1 -3 3
-10 4 -16 1 -5 3 -16 4 -22 3 -23 30 23 45 76 19 68 35 151 40 204 3 39 2 42
-18 36 -17 -5 -19 -4 -8 7 6 7 12 22 11 33 0 21 0 21 -9 1 -10 -24 -16 -10
-23 51 -5 47 -3 53 36 77 15 10 27 22 27 27 0 17 -33 11 -56 -11 -23 -21 -84
-36 -84 -21 0 5 20 29 45 55 46 48 46 54 1 37 -24 -9 -26 -8 -21 13 13 64 34
201 40 267 7 85 36 184 62 212 10 11 18 29 19 41 1 12 9 40 19 62 16 35 16 47
5 105 -7 36 -21 79 -32 97 -12 21 -18 47 -17 76 3 47 -42 157 -63 157 -21 0
-98 72 -98 91 0 11 -4 18 -9 15 -5 -3 -11 0 -14 8 -3 8 -20 17 -37 21 -31 7
-80 44 -80 62 0 18 -56 62 -133 102 -98 52 -146 68 -219 74 -31 3 -63 9 -70
13 -9 5 -8 1 2 -11 14 -17 13 -18 -5 -11 -39 16 -101 23 -210 25 -60 2 -112 3
-115 5 -3 1 -29 -6 -58 -16z m338 -785 c8 -13 13 -14 16 -5 3 7 23 12 45 12
24 0 38 -4 34 -10 -3 -5 0 -7 8 -4 8 3 17 1 20 -3 3 -5 28 -8 56 -7 37 1 56
-4 71 -18 11 -10 24 -16 29 -13 5 3 12 1 16 -5 4 -6 11 -8 16 -4 5 3 24 -8 41
-25 34 -33 59 -42 37 -13 -13 15 -12 16 4 3 9 -8 15 -16 13 -19 -3 -2 2 -18
10 -33 14 -28 26 -179 13 -179 -16 0 8 -71 38 -112 58 -80 104 -185 118 -273
18 -111 13 -226 -13 -300 -12 -33 -23 -71 -25 -85 -5 -30 -44 -117 -56 -124
-5 -3 -22 -42 -37 -86 -17 -47 -34 -80 -42 -80 -8 0 -16 -9 -19 -19 -5 -22
-20 -29 -70 -37 -30 -5 -35 -1 -32 22 0 4 -4 10 -10 13 -5 4 -19 27 -30 53
-14 33 -26 47 -43 50 -15 2 -22 9 -20 20 1 9 -2 19 -8 23 -5 3 -10 -1 -10 -10
0 -13 -8 -15 -42 -11 -24 3 -44 10 -46 16 -2 5 -10 10 -18 10 -23 0 -16 16 21
53 21 21 35 45 35 60 0 14 -15 44 -35 67 -19 23 -35 46 -35 51 0 5 -4 9 -10 9
-19 0 -10 -24 22 -57 22 -23 31 -41 30 -64 0 -17 -3 -33 -6 -36 -3 -3 -26 -7
-53 -8 -43 -3 -51 -8 -86 -49 -33 -39 -45 -46 -74 -46 -29 0 -43 8 -77 44
l-41 43 -57 -6 c-32 -4 -59 -3 -59 1 -1 4 -2 12 -3 17 0 5 -4 13 -8 16 -10 10
9 43 40 70 18 15 26 33 28 62 2 40 23 90 70 170 18 31 27 62 30 112 l5 69 -35
29 c-20 15 -36 35 -36 44 0 29 -122 69 -193 64 -23 -1 -52 2 -64 8 -24 10 -93
-4 -117 -24 -6 -5 -30 -24 -54 -41 -38 -27 -43 -34 -37 -57 9 -34 9 -34 49
-35 31 -1 33 -3 20 -17 -20 -23 -18 -31 20 -68 26 -25 39 -32 53 -26 47 20 93
21 105 2 5 -8 8 -7 8 6 0 10 5 15 11 12 14 -9 59 41 59 66 0 25 7 24 59 -11
49 -32 49 -32 -39 -48 l-55 -10 78 3 c85 3 87 1 62 -58 -6 -13 -4 -16 9 -11
22 8 20 -4 -9 -81 -13 -36 -22 -65 -20 -65 8 0 -19 -66 -41 -100 -31 -46 -29
-101 3 -132 25 -24 30 -38 11 -38 -6 0 -19 -6 -27 -14 -9 -8 -28 -16 -42 -18
-29 -4 -159 -84 -159 -98 0 -15 -46 -60 -61 -60 -8 0 -21 9 -29 20 -8 11 -20
20 -27 20 -7 0 -13 3 -12 8 2 13 -13 52 -20 52 -7 0 -30 49 -52 113 -7 20 -17
37 -21 37 -4 0 -8 6 -8 14 0 7 -7 19 -15 26 -8 7 -12 16 -9 21 2 5 -2 20 -11
33 -9 14 -14 30 -10 35 3 6 -3 19 -13 29 -32 32 -50 135 -41 237 9 116 18 164
33 195 30 59 59 105 75 117 9 7 12 13 7 13 -5 0 7 15 27 33 58 52 68 93 56
222 -5 58 -3 74 12 96 19 27 49 35 49 12 0 -7 5 -13 11 -13 5 0 8 -4 5 -9 -3
-5 2 -15 11 -22 14 -13 16 -11 11 19 -5 37 -5 37 16 16 15 -14 16 -12 16 18 1
43 23 72 50 65 11 -3 18 -2 16 2 -3 4 4 12 15 19 11 7 19 8 19 2 0 -5 5 -10
10 -10 6 0 10 7 10 15 0 24 72 20 87 -4 14 -23 49 -18 63 10 13 23 52 17 83
-14 18 -18 22 -19 25 -6 2 11 25 21 70 31 92 21 119 21 132 1z m-417 -630 c49
-10 28 -21 -35 -18 -79 3 -78 3 -48 20 14 8 32 12 40 9 8 -3 27 -8 43 -11z
m-568 -172 c-4 -20 -7 -44 -8 -53 -1 -11 -10 -18 -22 -18 -19 -1 -19 -1 -2
-14 9 -7 17 -16 17 -20 0 -4 -8 -6 -17 -4 -14 2 -19 -5 -21 -30 -2 -18 2 -39
8 -47 6 -8 7 -16 2 -19 -6 -3 -16 2 -23 11 -18 21 -18 203 0 257 l14 40 29
-34 c26 -28 29 -38 23 -69z m463 62 l23 -35 -28 7 c-15 3 -36 14 -46 23 -17
16 -17 17 -1 29 24 18 26 17 52 -24z m69 31 c-3 -3 -12 -4 -19 -1 -8 3 -5 6 6
6 11 1 17 -2 13 -5z m176 -30 c5 -30 -3 -30 -24 -1 -16 21 -16 23 1 24 12 1
20 -7 23 -23z m982 -26 c19 -88 23 -138 14 -183 -13 -62 -28 -95 -46 -95 -15
0 -17 16 -3 25 13 8 9 75 -5 75 -5 0 -4 4 4 9 12 8 12 13 -2 35 -22 33 -22
113 0 138 21 24 32 23 38 -4z m-1675 -158 c0 -37 -11 -52 -24 -31 -8 13 5 71
15 71 5 0 9 -18 9 -40z m0 -129 c0 -9 -4 -23 -9 -30 -8 -12 -12 -10 -22 11
-15 35 -5 66 16 48 8 -7 15 -20 15 -29z m1000 -158 c0 -5 -5 -15 -10 -23 -7
-12 -12 -12 -22 -2 -10 10 -10 15 2 22 18 12 30 13 30 3z m-302 -15 c17 -17
15 -38 -3 -38 -8 0 -15 7 -15 15 0 8 -5 15 -11 15 -5 0 -7 5 -4 10 8 13 18 13
33 -2z m139 -120 c-3 -8 -6 -5 -6 6 -1 11 2 17 5 13 3 -3 4 -12 1 -19z m15
-49 c17 -9 18 -13 7 -20 -26 -16 -68 -1 -55 20 9 14 22 14 48 0z m43 -52 c0
-7 -13 -18 -30 -25 l-30 -12 34 5 c35 5 101 -12 101 -27 0 -21 62 -6 94 23
l35 31 26 -26 c14 -14 30 -26 34 -26 5 0 14 -6 21 -14 6 -8 18 -12 26 -9 10 4
15 0 14 -8 -4 -29 1 -39 20 -39 11 0 20 -4 20 -10 0 -5 -10 -10 -22 -10 -17 0
-19 -3 -9 -9 11 -7 9 -10 -9 -16 -16 -5 -19 -10 -11 -18 16 -16 13 -30 -5 -23
-14 5 -15 4 -5 -8 16 -19 6 -37 -15 -29 -13 5 -15 1 -9 -15 5 -18 2 -22 -14
-22 -12 0 -21 5 -21 10 0 6 -4 10 -10 10 -5 0 -10 -16 -10 -36 0 -19 -4 -33
-9 -29 -5 3 -12 -3 -14 -12 -3 -13 -5 -12 -6 5 -1 16 -7 23 -18 21 -35 -3 -44
1 -53 26 -5 14 -17 25 -27 25 -12 0 -14 -3 -6 -11 14 -14 -2 -65 -23 -73 -16
-6 -17 -4 -8 18 3 9 10 13 15 10 5 -3 9 0 9 5 0 6 -4 11 -10 11 -5 0 -10 11
-10 25 0 17 6 25 18 25 14 0 15 2 2 10 -11 7 -11 10 -2 10 7 0 10 5 7 10 -3 6
-2 10 3 10 6 0 13 11 16 25 4 14 11 23 16 20 5 -3 12 0 16 6 4 8 3 9 -5 5 -6
-4 -13 -1 -16 6 -4 9 -20 13 -48 12 -23 -1 -113 -4 -200 -5 -87 -1 -160 -5
-162 -9 -2 -3 7 -18 21 -33 13 -14 24 -31 24 -38 0 -7 10 -9 25 -7 27 6 43 -6
25 -17 -6 -4 -8 -11 -4 -16 3 -5 9 -7 13 -4 9 5 24 -115 16 -123 -2 -2 -11 3
-20 11 -9 10 -11 18 -5 22 5 3 10 11 10 17 0 6 -7 5 -16 -3 -15 -12 -16 -11
-10 9 7 21 5 22 -18 16 -31 -8 -35 10 -6 28 11 7 20 16 20 19 0 10 -54 1 -58
-10 -2 -7 -12 -7 -29 0 -18 6 -30 6 -39 -2 -18 -15 -74 -22 -74 -9 0 5 -7 7
-15 4 -8 -3 -22 2 -31 11 -14 14 -15 21 -6 36 10 16 9 19 -5 19 -16 0 -16 2
-3 11 12 8 10 9 -8 4 -31 -9 -48 8 -50 49 -1 28 3 36 27 46 17 7 32 22 35 36
5 20 11 24 26 19 13 -4 34 2 55 15 l35 21 32 -25 c34 -26 100 -34 92 -11 -5
12 36 35 62 35 8 0 12 5 9 10 -3 6 1 10 10 10 9 0 14 -4 11 -9 -6 -10 16 -21
42 -21 12 0 10 5 -8 23 l-25 22 60 5 c65 5 70 4 70 -13z m-485 -88 c-12 -22
-50 -23 -57 -2 -4 11 15 20 50 22 15 1 16 -2 7 -20z m403 -195 c21 3 31 -2 38
-18 5 -11 14 -28 20 -36 14 -19 -4 -70 -26 -70 -8 0 -17 -11 -21 -25 -6 -25
-7 -25 -26 -9 -10 10 -17 23 -14 30 3 7 -4 14 -15 17 -12 3 -19 14 -19 30 0
14 -6 28 -12 31 -9 3 -6 11 10 24 12 11 22 26 22 34 0 9 2 10 8 1 4 -6 20 -10
35 -9z m96 -54 c0 -10 -3 -8 -9 5 -12 27 -12 43 0 25 5 -8 9 -22 9 -30z m505
-102 c-8 -52 -22 -92 -23 -66 -1 21 -18 32 -34 21 -7 -4 -4 0 6 9 11 10 24 15
30 11 6 -3 7 -1 3 5 -8 14 3 62 15 62 5 0 6 -19 3 -42z m-39 -78 c-3 -4 0 -10
6 -12 15 -5 -24 -104 -70 -174 -57 -89 -214 -239 -286 -274 -90 -44 -350 -85
-380 -60 -8 7 -41 25 -73 40 -98 46 -276 231 -350 361 -31 55 -35 80 -19 107
13 19 26 14 33 -13 5 -19 11 -24 24 -20 9 3 23 -1 30 -10 7 -8 19 -15 26 -15
8 0 14 -6 14 -13 0 -15 128 -107 148 -107 7 0 23 -6 35 -14 12 -8 51 -19 86
-25 35 -6 68 -15 75 -20 39 -31 251 -11 339 32 18 9 45 19 60 22 15 3 25 10
22 15 -3 6 1 7 10 4 12 -5 16 -2 13 10 -3 16 12 27 72 58 14 7 27 15 30 18 3
3 21 16 40 27 19 12 34 26 34 30 -1 4 3 7 10 5 6 -2 8 0 4 4 -13 13 11 31 42
32 17 0 28 -3 25 -8z m-1117 -25 c-3 -3 -9 2 -12 12 -6 14 -5 15 5 6 7 -7 10
-15 7 -18z m253 -152 c13 -16 12 -17 -3 -4 -10 7 -18 15 -18 17 0 8 8 3 21
-13z m276 -59 c-3 -3 -12 -4 -19 -1 -8 3 -5 6 6 6 11 1 17 -2 13 -5z m730 -56
c-3 -7 -5 -2 -5 12 0 14 2 19 5 13 2 -7 2 -19 0 -25z m-1432 -518 c3 -5 1 -10
-4 -10 -6 0 -11 5 -11 10 0 6 2 10 4 10 3 0 8 -4 11 -10z m-785 -91 c0 -6 -4
-7 -10 -4 -5 3 -10 11 -10 16 0 6 5 7 10 4 6 -3 10 -11 10 -16z m640 1 c0 -5
-2 -10 -4 -10 -3 0 -8 5 -11 10 -3 6 -1 10 4 10 6 0 11 -4 11 -10z m475 -350
c3 -5 -1 -10 -10 -10 -9 0 -13 5 -10 10 3 6 8 10 10 10 2 0 7 -4 10 -10z m218
-7 c-7 -2 -19 -2 -25 0 -7 3 -2 5 12 5 14 0 19 -2 13 -5z m714 -179 c-3 -3
-12 -4 -19 -1 -8 3 -5 6 6 6 11 1 17 -2 13 -5z m-907 -28 c0 -3 -4 -8 -10 -11
-5 -3 -10 -1 -10 4 0 6 5 11 10 11 6 0 10 -2 10 -4z m1540 -30 c0 -2 -7 -6
-15 -10 -8 -3 -15 -1 -15 4 0 6 7 10 15 10 8 0 15 -2 15 -4z m-857 -203 c-7
-2 -19 -2 -25 0 -7 3 -2 5 12 5 14 0 19 -2 13 -5z m-1133 -99 c0 -2 -7 -4 -15
-4 -8 0 -15 4 -15 10 0 5 7 7 15 4 8 -4 15 -8 15 -10z m1230 6 c0 -5 -2 -10
-4 -10 -3 0 -8 5 -11 10 -3 6 -1 10 4 10 6 0 11 -4 11 -10z m-1660 -20 c0 -5
-5 -10 -11 -10 -5 0 -7 5 -4 10 3 6 8 10 11 10 2 0 4 -4 4 -10z m70 0 c0 -5
-5 -10 -11 -10 -5 0 -7 5 -4 10 3 6 8 10 11 10 2 0 4 -4 4 -10z m2460 -41 c0
-5 -6 -9 -13 -9 -8 0 -14 6 -14 14 0 8 6 12 14 9 7 -3 13 -9 13 -14z m-1420
-93 c0 -2 -7 -6 -15 -10 -8 -3 -15 -1 -15 4 0 6 7 10 15 10 8 0 15 -2 15 -4z
m-610 -50 c0 -3 -4 -8 -10 -11 -5 -3 -10 -1 -10 4 0 6 5 11 10 11 6 0 10 -2
10 -4z m-100 -26 c0 -5 -9 -10 -21 -10 -11 0 -17 5 -14 10 3 6 13 10 21 10 8
0 14 -4 14 -10z m1140 -160 c0 -5 -7 -10 -15 -10 -8 0 -15 5 -15 10 0 6 7 10
15 10 8 0 15 -4 15 -10z" />
        <path d="M2030 4160 c-8 -5 -12 -12 -9 -15 4 -3 12 1 19 10 14 17 11 19 -10 5z" />
        <path
            d="M2470 3689 c-87 -25 -170 -59 -170 -70 0 -5 -9 -9 -20 -9 -19 0 -70
-66 -70 -91 0 -17 51 -163 62 -176 15 -19 30 -16 27 5 -3 31 1 43 12 36 6 -3
4 8 -5 24 -9 17 -16 35 -16 41 0 10 74 6 163 -8 34 -6 47 -5 45 3 -2 6 7 24
19 40 17 21 27 26 43 21 29 -9 20 -28 -20 -41 l-33 -11 26 -5 c15 -3 27 -1 27
5 0 6 10 1 23 -11 l24 -22 18 20 c10 11 26 20 36 20 21 0 29 19 17 43 -7 13
-4 19 9 23 37 11 48 22 51 46 2 20 -8 35 -49 71 -46 40 -98 69 -84 47 3 -4 -4
-6 -15 -3 -11 3 -17 9 -14 14 8 14 -34 9 -106 -12z m-170 -194 c-7 -9 -15 -13
-18 -10 -3 2 1 11 8 20 7 9 15 13 18 10 3 -2 -1 -11 -8 -20z m124 -11 c28 -35
28 -36 5 -29 -13 4 -46 11 -74 15 -27 4 -42 8 -32 9 10 0 16 5 12 10 -6 11 22
30 45 31 8 0 28 -16 44 -36z" />
        <path d="M2390 2055 c-14 -8 -20 -14 -14 -15 5 0 19 7 30 15 24 18 16 19 -16
0z" />
    </g>
</svg>