<?xml version="1.0" encoding="iso-8859-1"?>
<svg version="1.1" id="checked-square" height="100%" width="100%" xmlns="http://www.w3.org/2000/svg"
    xmlns:xlink="http://www.w3.org/1999/xlink" x="0px" y="0px" viewBox="0 0 512 512"
    style="enable-background:new 0 0 330 330;" xml:space="preserve">
    <path
        d="M400,48H112a64.07,64.07,0,0,0-64,64V400a64.07,64.07,0,0,0,64,64H400a64.07,64.07,0,0,0,64-64V112A64.07,64.07,0,0,0,400,48ZM364.25,186.29l-134.4,160a16,16,0,0,1-12,5.71h-.27a16,16,0,0,1-11.89-5.3l-57.6-64a16,16,0,1,1,23.78-21.4l45.29,50.32L339.75,165.71a16,16,0,0,1,24.5,20.58Z" />
</svg>