<?xml version="1.0" encoding="utf-8"?>
<svg version="1.1" id="company" xmlns="http://www.w3.org/2000/svg"
	xmlns:xlink="http://www.w3.org/1999/xlink"
	width="100%" height="100%" viewBox="0 0 256 252" enable-background="new 0 0 256 252"
	xml:space="preserve">
<path d="M19.719,76.781v75.797H2v71.859h17.719h60.047V76.781H19.719z M57.125,189.984H42.359v-14.766h14.766V189.984z
	 M42.359,152.578v-14.766h14.766v14.766H42.359z M254,39.375h-61.031v105.328H222.5h7.875v7.875v70.875H254V39.375z
	 M231.359,114.188h-14.766V99.422h14.766V114.188z M231.359,76.781h-14.766V62.016h14.766V76.781z M185.094,152.578V1.969h-60.047
	v37.406H87.641v210.656H222.5v-97.453H185.094z M125.047,152.578h-14.766v-14.766h14.766V152.578z M125.047,114.188h-14.766V99.422
	h14.766V114.188z M162.453,227.391h-14.766v-14.766h14.766V227.391z M162.453,189.984h-14.766v-14.766h14.766V189.984z
	 M162.453,152.578h-14.766v-14.766h14.766V152.578z M162.453,76.781h-14.766V62.016h14.766V76.781z M199.859,227.391h-14.766
	v-14.766h14.766V227.391z M199.859,189.984h-14.766v-14.766h14.766V189.984z"/>
</svg>