<?xml version="1.0" encoding="iso-8859-1"?>
<svg version="1.1" id="money-minus" width="100%" height="100%" xmlns="http://www.w3.org/2000/svg" xmlns:xlink="http://www.w3.org/1999/xlink" x="0px" y="0px" viewBox="0 0 473.302 473.302" style="enable-background:new 0 0 473.302 473.302;" xml:space="preserve">
    <g id="Layer_8_50_">
        <path d="M303.173,97.537c7.046-1.797,12.326-5.893,5.854-12.725c-0.784-0.818-2.041-0.537-2.61,0.331
			c-1.862,2.823-6.119,3.765-11.088,3.63c1.54-0.448,2.759-1.236,3.453-2.514c2.518-4.646,0.114-8.58-3.529-11.874
			c-1.312-1.204-2.806-1.957-4.384-2.386c9.801-17.28,20.418-37.918,27.524-57.262c16.664-45.195-52.326,30.931-76.115,17.5
			c-23.792-13.415-14.265-55.558-54.709-15.124c-28.477,28.495,15.779,54.594,44.46,67.56c-5.809,0.812-11.608,1.321-17.33,1.31
			c-6.437,0-12.859-0.194-19.279-0.723c-5.185-0.418-18.346-0.89-20.805-6.902c-0.796-1.956-3.997-1.097-3.189,0.881
			c2.729,6.679,12.178,7.898,18.413,8.722c6.796,0.87,13.704,1.284,20.602,1.368c-0.083,0.011-0.179,0.027-0.263,0.038
			c-16.928,2.208-34.011,4.892-50.367,9.896c-5.812,1.781-20.543,5.795-19.393,14.362c0.278,2.079,3.595,2.112,3.315,0
			c-1.289-9.656,27.636-14.115,33.599-15.409c16.692-3.62,33.69-5.888,50.693-7.592c-42.608,20.944-99.824,77.461-112.605,148.755
			c10.008-3.157,20.642-4.867,31.676-4.867c31.895,0,61.744,14.236,81.898,39.046l0.505,0.624
			c7.299-1.604,14.875-2.474,22.646-2.474c58.167,0,105.483,47.316,105.483,105.484c0,5.553-0.433,10.997-1.264,16.322
			c37.297-23.207,61.445-64.176,61.445-125.16C417.814,184.367,360.949,126.366,303.173,97.537z M283.592,84.492
			c1.745-2.935,3.595-6.054,5.456-9.294c0.406,0.068,0.814,0.117,1.238,0.224c4.607,1.391,6.14,4.571,4.551,9.56
			c-1.751,0.712-4.181,0.37-5.998,0.241C287.072,85.11,285.337,84.823,283.592,84.492z M297.803,94.927
			c-2.395-1.116-4.78-2.18-7.172-3.201c6.832,0.785,13.41,0.164,17.131-3.152c2.747,4.667-5.784,5.942-9.379,6.336
			C298.177,94.927,298,94.922,297.803,94.927z M180.306,300.031v-0.104c0.017,0.021,0.04,0.027,0.063,0.048
			C180.346,299.998,180.33,300.021,180.306,300.031z M151.813,415.966c2.202,6.54,5.089,12.738,8.544,18.594
			c-5.262,0.984-10.662,1.554-16.202,1.554c-48.97,0-88.664-39.703-88.664-88.667c0-48.965,39.694-88.663,88.664-88.663
			c27.797,0,52.584,12.812,68.839,32.826c-6.539,2.263-12.747,5.199-18.574,8.733c-12.581-13.428-30.42-21.855-50.266-21.855
			c-38.089,0-68.961,30.878-68.961,68.964c0,38.085,30.872,68.969,68.961,68.969C146.749,416.409,149.299,416.24,151.813,415.966z
			 M160.549,334.39c-8.785,14.741-13.928,31.882-13.928,50.25c0,5.085,0.502,10.057,1.261,14.943h-8.988v-69.828
			c-4.713,1.428-10.447,2.123-17.289,2.123h-4.929v-19.142h4.929c15.825,0,19.054-7.294,20.102-12.766l0.761-3.994h18.082V334.39z
			 M249.217,295.977c-48.968,0-88.668,39.699-88.668,88.663c0,48.957,39.695,88.662,88.668,88.662
			c48.969,0,88.662-39.705,88.662-88.662C337.869,335.676,298.177,295.977,249.217,295.977z M249.217,453.608
			c-38.087,0-68.961-30.883-68.961-68.969c0-38.08,30.874-68.964,68.961-68.964c38.085,0,68.958,30.884,68.958,68.964
			C318.175,422.726,287.302,453.608,249.217,453.608z M247.516,333.169h18.09v103.602h-21.656v-69.827
			c-4.72,1.43-10.444,2.134-17.292,2.134h-4.926v-19.142h4.926c15.83,0,19.052-7.294,20.114-12.771L247.516,333.169z" />
    </g>
</svg>