<?xml version="1.0" encoding="iso-8859-1"?>
<svg version="1.1" id="more" width="100%" height="100%" xmlns="http://www.w3.org/2000/svg" xmlns:xlink="http://www.w3.org/1999/xlink" x="0px" y="0px"
	viewBox="0 0 210 210" style="enable-background:new 0 0 210 210;" xml:space="preserve">
	<path id="XMLID_104_" d="M115,0H95c-8.284,0-15,6.716-15,15v20c0,8.284,6.716,15,15,15h20c8.284,0,15-6.716,15-15V15
		C130,6.716,123.284,0,115,0z" />
	<path id="XMLID_105_" d="M115,80H95c-8.284,0-15,6.716-15,15v20c0,8.284,6.716,15,15,15h20c8.284,0,15-6.716,15-15V95
		C130,86.716,123.284,80,115,80z" />
	<path id="XMLID_106_" d="M115,160H95c-8.284,0-15,6.716-15,15v20c0,8.284,6.716,15,15,15h20c8.284,0,15-6.716,15-15v-20
		C130,166.716,123.284,160,115,160z" />
</svg>