<svg id="more-circle" width="100%" height="100%" viewBox="0 0 24 24" xmlns="http://www.w3.org/2000/svg">
    <path fill-rule="evenodd" clip-rule="evenodd" d="M9.02975 3.3437C10.9834 2.88543 13.0166 2.88543 14.9703 3.3437C17.7916 4.00549 19.9945 6.20842 20.6563 9.02975C21.1146 10.9834 21.1146 13.0166 20.6563 14.9703C19.9945 17.7916 17.7916 19.9945 14.9703 20.6563C13.0166 21.1146 10.9834 21.1146 9.02975 20.6563C6.20842 19.9945 4.0055 17.7916 3.3437 14.9703C2.88543 13.0166 2.88543 10.9834 3.3437 9.02974C4.0055 6.20841 6.20842 4.00549 9.02975 3.3437ZM9.18062 12C9.18062 12.5287 8.74028 12.9573 8.19708 12.9573C7.65389 12.9573 7.21354 12.5287 7.21354 12C7.21354 11.4713 7.65389 11.0427 8.19708 11.0427C8.74028 11.0427 9.18062 11.4713 9.18062 12ZM12.9835 12C12.9835 12.5287 12.5432 12.9573 12 12.9573C11.4568 12.9573 11.0164 12.5287 11.0164 12C11.0164 11.4713 11.4568 11.0427 12 11.0427C12.5432 11.0427 12.9835 11.4713 12.9835 12ZM15.8029 12.9573C16.3461 12.9573 16.7864 12.5287 16.7864 12C16.7864 11.4713 16.3461 11.0427 15.8029 11.0427C15.2597 11.0427 14.8193 11.4713 14.8193 12C14.8193 12.5287 15.2597 12.9573 15.8029 12.9573Z" />
</svg>