<?xml version="1.0" standalone="no"?>
<svg version="1.0" id="placeholder" xmlns="http://www.w3.org/2000/svg" width="100%" height="100%" viewBox="0 0 748.000000 323.000000" preserveAspectRatio="xMidYMid meet">

    <g transform="translate(0.000000,323.000000) scale(0.100000,-0.100000)" stroke="none">
        <path d="M854 3179 c-67 -8 -144 -42 -144 -62 0 -7 14 -26 30 -42 17 -16 30
-39 30 -53 0 -25 -260 -543 -420 -837 -98 -179 -195 -337 -273 -445 -50 -69
-58 -103 -28 -120 70 -37 251 31 346 129 82 85 178 260 360 663 98 215 114
238 115 158 0 -135 59 -478 105 -616 57 -172 158 -322 228 -340 48 -11 104 12
137 57 16 22 122 226 237 452 l208 412 7 -75 c4 -41 12 -148 17 -236 17 -257
53 -361 163 -479 110 -118 249 -156 363 -100 62 30 152 115 161 152 5 17 -1
33 -20 56 -149 181 -199 309 -232 582 -15 126 -21 605 -9 658 3 12 2 35 -3 52
-7 25 -15 31 -48 36 -21 4 -79 3 -128 -1 -69 -7 -104 -16 -154 -41 -57 -28
-69 -40 -114 -108 -53 -82 -223 -423 -333 -669 l-69 -153 -17 33 c-20 39 -38
126 -79 378 -58 352 -98 470 -177 521 -41 25 -68 32 -168 43 -16 2 -58 0 -91
-5z" />
        <path d="M5478 3156 c-58 -21 -125 -64 -146 -94 -29 -40 -84 -155 -122 -253
-32 -80 -36 -86 -76 -103 -77 -32 -144 -125 -144 -201 0 -39 28 -75 60 -75 11
0 20 -4 20 -10 0 -5 -21 -91 -47 -192 -40 -160 -46 -197 -47 -293 -1 -95 2
-116 21 -151 54 -101 118 -144 223 -151 108 -7 232 48 319 142 49 53 53 75 14
75 -83 0 -155 54 -169 127 -14 71 28 388 58 446 5 10 20 17 36 17 87 0 162 57
187 143 20 67 19 74 -8 101 -16 16 -41 26 -76 31 l-52 7 6 32 c4 17 29 90 55
161 58 154 64 177 55 204 -14 46 -94 63 -167 37z" />
        <path d="M6366 2714 c-260 -63 -479 -306 -572 -634 -44 -155 -29 -286 42 -368
99 -117 281 -132 481 -42 141 64 373 245 373 291 0 28 -58 61 -95 54 -16 -3
-63 -28 -105 -55 -150 -98 -246 -124 -290 -80 -31 31 -24 40 28 40 83 1 181
60 299 182 118 121 174 242 174 374 0 53 -6 87 -21 121 -28 63 -45 81 -105
109 -58 27 -119 30 -209 8z m28 -254 c-1 -54 -8 -123 -18 -160 -27 -103 -91
-225 -148 -283 l-51 -52 -9 30 c-20 67 24 248 98 404 53 112 89 163 112 159
15 -3 17 -18 16 -98z" />
        <path d="M3325 2710 c-221 -36 -478 -229 -622 -466 -98 -161 -143 -345 -113
-454 25 -90 110 -179 193 -201 148 -40 265 16 473 226 l121 121 6 -90 c9 -139
39 -206 111 -243 64 -33 221 14 293 89 l32 33 -17 50 c-14 42 -17 92 -17 304
-1 237 -2 254 -20 267 -10 8 -29 14 -42 14 -28 0 -28 -2 -3 51 24 54 25 119 3
166 -45 96 -236 160 -398 133z m-12 -168 c9 -9 21 -39 27 -66 14 -62 1 -126
-40 -204 -16 -31 -30 -65 -30 -76 0 -17 6 -18 63 -13 34 4 75 10 91 13 24 6
15 -6 -55 -73 -152 -145 -232 -203 -279 -203 -37 0 -67 36 -80 95 -26 115 43
283 187 457 77 93 89 100 116 70z" />
        <path d="M4446 2709 c-63 -15 -196 -82 -263 -133 -194 -147 -294 -382 -219
-511 40 -67 100 -102 290 -165 59 -19 111 -44 130 -60 28 -26 31 -34 31 -87 0
-49 -5 -65 -32 -104 -37 -53 -71 -78 -117 -86 -27 -4 -34 -1 -44 21 -19 42
-14 111 13 178 14 34 25 67 25 74 0 19 -29 25 -79 18 -101 -15 -211 -96 -257
-190 -22 -45 -25 -61 -19 -101 10 -67 68 -125 150 -148 77 -23 241 -16 335 14
158 50 353 211 425 351 27 52 32 158 10 204 -31 65 -72 85 -354 166 -50 15
-84 32 -104 51 -27 28 -29 34 -25 92 5 80 51 181 108 236 23 23 47 41 52 41
17 0 48 -85 48 -135 0 -27 -7 -81 -15 -120 -20 -94 -19 -112 7 -126 60 -32
149 1 225 84 54 59 83 118 90 181 10 98 -58 202 -164 247 -49 21 -174 25 -247
8z" />
        <path d="M7055 2701 c-72 -43 -124 -139 -179 -329 -91 -313 -121 -614 -72
-709 31 -62 112 -80 192 -44 50 23 120 84 140 122 15 29 35 192 54 429 12 156
26 240 40 240 15 0 30 -70 39 -188 8 -108 15 -131 43 -132 13 0 49 44 70 84
84 164 95 495 17 536 -39 21 -72 11 -120 -36 l-48 -47 -14 36 c-9 19 -24 40
-35 46 -32 17 -94 13 -127 -8z" />
        <path d="M2405 880 c-91 -20 -154 -89 -239 -261 -136 -275 -171 -503 -85 -549
34 -19 101 23 200 123 l89 90 0 -64 c2 -147 78 -193 199 -119 26 17 32 25 27
43 -29 99 -34 150 -23 251 12 117 6 136 -42 136 -38 0 -121 -52 -197 -122
l-67 -63 7 50 c22 142 95 359 138 408 l19 22 -4 -65 c-3 -42 -17 -98 -41 -159
-23 -61 -33 -98 -27 -104 25 -25 167 97 197 168 19 46 18 120 -2 154 -28 48
-91 73 -149 61z" />
        <path d="M3748 857 c-34 -27 -74 -115 -123 -269 -26 -81 -43 -119 -55 -123
-26 -8 -70 -77 -70 -107 0 -16 9 -33 21 -42 12 -8 19 -18 16 -23 -3 -5 -15
-45 -26 -88 -17 -64 -19 -85 -10 -107 23 -55 123 -60 179 -8 21 20 37 54 61
133 l33 107 103 0 c76 0 103 -3 103 -12 0 -7 -11 -48 -25 -91 -33 -101 -33
-142 0 -163 22 -14 29 -14 77 0 81 24 103 48 147 159 35 90 42 100 77 118 50
24 98 93 83 121 -6 10 -24 21 -40 25 -23 4 -28 10 -23 22 66 161 98 304 76
337 -12 19 -49 34 -82 34 -78 0 -118 -56 -186 -260 l-41 -125 -107 -3 c-58 -1
-106 0 -106 4 0 4 18 62 40 129 56 172 59 197 27 229 -35 35 -109 37 -149 3z" />
        <path d="M1631 854 c-43 -22 -91 -89 -91 -125 0 -43 28 -53 131 -46 l87 7 -39
-93 c-70 -163 -139 -390 -139 -457 0 -85 65 -105 160 -47 46 27 57 40 73 82
26 71 127 470 127 504 0 25 4 29 40 35 56 9 82 37 78 84 -4 55 -28 62 -225 68
-147 5 -172 3 -202 -12z" />
        <path d="M5626 643 c-160 -49 -296 -215 -296 -361 0 -77 18 -122 61 -154 159
-118 419 -57 505 118 30 61 42 152 30 219 -10 53 -74 115 -117 115 -34 0 -131
-39 -142 -58 -4 -5 5 -20 20 -33 33 -30 73 -115 73 -154 0 -124 -96 -205 -172
-145 -38 30 -51 71 -46 148 11 145 97 254 220 276 42 8 58 24 37 37 -22 13
-119 9 -173 -8z" />
        <path d="M2940 631 c-134 -41 -260 -193 -291 -353 -15 -73 -5 -120 32 -163 82
-93 249 -55 408 94 27 26 31 34 21 46 -19 23 -51 18 -105 -16 -82 -52 -134
-61 -148 -25 -4 10 0 12 13 9 53 -14 191 101 232 193 63 144 -22 257 -162 215z
m26 -142 c-10 -83 -42 -165 -82 -208 l-33 -36 -1 46 c0 78 74 259 106 259 14
0 16 -9 10 -61z" />
        <path d="M4687 626 c-132 -47 -249 -197 -277 -353 -19 -107 16 -175 104 -203
49 -16 104 -7 180 30 70 33 179 118 184 143 5 26 -45 34 -82 12 -90 -52 -126
-67 -151 -61 -28 7 -34 26 -8 26 58 0 181 103 223 187 29 58 32 146 6 185 -30
46 -105 60 -179 34z m40 -133 c-8 -86 -36 -159 -78 -206 l-38 -42 -1 42 c0 76
76 263 108 263 12 0 14 -11 9 -57z" />
        <path d="M5070 627 c-59 -30 -127 -235 -137 -414 -7 -122 5 -153 60 -153 40 0
105 42 118 78 6 14 16 93 24 175 7 82 16 151 19 154 12 12 17 -6 23 -76 3 -39
10 -74 14 -77 16 -9 48 35 63 87 9 29 16 86 16 126 0 60 -4 77 -20 93 -26 26
-32 25 -60 -5 l-23 -25 -23 25 c-26 28 -38 30 -74 12z" />
    </g>
</svg>