<?xml version="1.0" encoding="iso-8859-1"?>
<svg version="1.1" id="pointer" height="100%" width="100%" xmlns="http://www.w3.org/2000/svg" xmlns:xlink="http://www.w3.org/1999/xlink" x="0px" y="0px"
	viewBox="0 0 490.9 490.9" xml:space="preserve">
	<path d="M290.791,170.9c-14.7-0.6-23.4,0.6-23.1,5.4c0.3,4.4,8.3,10.1,21.8,15.6c13.4,5.6,31.7,11.3,52.8,19.1
			c30.7,11.3,60.1,27,88.8,44.4c1.2,8.7,2,18.1,2.5,27.1c0.6,11.4,0.7,22.7,0.2,34c-1.2,22.5-4.3,44.8-11.4,65.1
			c-9.6,29.2-28.8,52.9-55.8,64.3c-6.7,2.9-13.8,5.2-21.1,6.6c-3.7,1-7.3,1.4-10.9,1.9l-5.4,0.8c-1.9,0.2-4.2,0.2-6.2,0.3
			c-15.9,1.1-31-0.3-46.5-3.6c-30.7-6.7-60.2-20.8-87.6-38.3c-27.4-17.6-53-38.8-76.7-61.9c-10.5-11.5-20.7-23.4-30.5-35.5
			c-6.5-8-12.9-16.3-18.9-24.6c4.9-3.2,10-5.4,15.2-6.4c9-1.4,18.8,0.1,28.7,4.5c4.9,2.1,9.7,5,14.2,8.1c1.2,0.8,2.1,1.6,3.2,2.4
			l3.9,3.2l7.9,6.3l31.8,25c3.2,2.5,7.3,4.1,11.7,4.2c10.7,0.2,19.5-8.4,19.7-19.1v-0.4c0.7-45.5,1.1-91,1.4-136.6l0.3-68.5
			l-0.4-67.7v-0.1c0.1-4.1,1.8-7.9,4.8-10.8c1.5-1.4,3.2-2.5,5.1-3.2c0.8-0.3,2.1-0.7,2.7-0.8c0.1,0,0.2,0,0.3-0.1
			c0.1,0,0.1-0.1,0.8-0.1l1.7-0.1h0.3h0.1c4.1,0,8,1.7,10.9,4.6s4.5,6.8,4.4,10.9c0,0.7,0,1.5,0.1,2.2v0.1
			c3.6,31.6,7.2,63.1,10.8,94.6c1.2,10.8,6.7,27.4,9.8,32.5c6.1,10,8.6-4.3,9.2-25.2c1-32.4,0.3-67.9-1.6-105.2c0,0.3,0,0.7,0.1,1
			c0.6-10.9-3.2-22.5-10.8-31.3c-7.6-8.8-19-14.7-31.2-15.5l-1.1-0.1h-0.6h-0.1h-0.7h-0.2h-1.7c-0.6,0-1,0-1.8,0l-2.6,0.3
			c-1.8,0.2-3.3,0.5-4.8,0.8s-3,0.8-4.5,1.3c-5.9,2-11.4,5.2-16.2,9.3c-9.1,7.9-15.1,19.8-16,32.2c-0.1,0.5-0.2,0.9-0.2,1.4v0.5
			c-0.1,7.3-0.3,14.6-0.4,21.9c-0.3,20.9-0.5,42-1,62.7l-1.4,62.9c-0.6,30.1-1.3,60.2-1.9,90.3l-4.2-3.3l-7.9-6.2l-3.9-3.1
			c-1.6-1.2-3.2-2.5-4.9-3.6c-6.6-4.5-13.4-8.5-20.9-11.6c-14.7-6.4-32.6-9.7-50.5-6.1c-4.3,1.2-8.8,2.3-12.9,4
			c-3.9,2-8.2,3.6-11.8,6.1c-3.5,2.5-7.3,4.8-10.4,7.6l-9,8.6c-6.2,5.9-7.3,15.6-2.1,22.8l0.7,0.9c5.4,7.4,10.4,13.9,15.8,20.6
			c5.4,6.6,10.8,13.1,16.5,19.5c11.2,12.8,22.9,25.2,35.2,37.1c24.5,23.8,51,45.8,80.4,64.3c11,7.4,22.3,14.3,34.3,20.5
			c11.8,6.3,24.3,11.7,37.1,16.3c15.6,5.6,32.1,9.6,49,11.5c4.2,0.7,8.5,0.8,12.7,1.1l6.4,0.3h0.4h0.2h1h0.7h1.4l2.9-0.1
			c3.9-0.1,7.6-0.1,11.7-0.4l13.5-1.5c17.4-2.6,34.6-7.8,50.6-16.9c15.9-8.9,29.8-21.6,40.4-36.1c10.7-14.5,18.1-30.6,23.4-46.8
			c5.2-16.3,8.3-32.8,10-49.2c1.6-16.4,1.9-32.7,1.1-48.9c-0.4-8.1-1-16.1-1.9-24.2c-0.4-4-1-8-1.6-12.1c-0.6-4.1-1.2-7.9-2.1-12.5
			l-0.1-0.4c-1-5-4.1-9.6-8.9-12.3c-33.1-19-67.8-36.2-105-47.8C327.191,174.6,305.491,171.4,290.791,170.9z" />
</svg>